/* XPM */
static char *_447077be79242b0abd4f750990560105jsAqF0iFhpYCnAs[] = {
/* columns rows colors chars-per-pixel */
"32 32 143 2 ",
"   c black",
".  c #0A0001",
"X  c gray3",
"o  c gray8",
"O  c #151515",
"+  c #171414",
"@  c #220003",
"#  c #250003",
"$  c #370C18",
"%  c #3A0B18",
"&  c #241115",
"*  c #393939",
"=  c #46000C",
"-  c #44011A",
";  c #500215",
":  c #5A001F",
">  c #4F111F",
",  c #4C181E",
"<  c #6C011B",
"1  c #5C0021",
"2  c #5D0023",
"3  c #5F0228",
"4  c #551221",
"5  c #610021",
"6  c #660523",
"7  c #6B0021",
"8  c #6D0021",
"9  c #6B0B24",
"0  c #61062D",
"q  c #720021",
"w  c #770021",
"e  c #7B0022",
"r  c #701A3F",
"t  c #562B22",
"y  c #722A40",
"u  c #73244A",
"i  c #7C3549",
"p  c #783053",
"a  c #7A495E",
"s  c #7E5164",
"d  c gray49",
"f  c #860020",
"g  c #860022",
"h  c #8B0021",
"j  c #8E0021",
"k  c #8F0022",
"l  c #920022",
"z  c #920023",
"x  c #920123",
"c  c #930024",
"v  c #920229",
"b  c #91062D",
"n  c #841B28",
"m  c #911B28",
"M  c #901135",
"N  c #901839",
"B  c #912C2B",
"V  c #8B382D",
"C  c #8E3C2D",
"Z  c #91322C",
"A  c #91402E",
"S  c #8F4E3F",
"D  c #914231",
"F  c #E3244E",
"G  c #E4244E",
"H  c #F82755",
"J  c #FE2756",
"K  c #FC2856",
"L  c #904F42",
"P  c #905143",
"I  c #93425A",
"U  c #905E52",
"Y  c #965164",
"T  c #936860",
"R  c #946C63",
"E  c #96726A",
"W  c #886473",
"Q  c #886B77",
"!  c #9A7E78",
"~  c #C78C76",
"^  c #CC927A",
"/  c #DBA67D",
"(  c #98808A",
")  c #A4918D",
"_  c #A5918D",
"`  c #8B98A3",
"'  c #9A99B9",
"]  c #9AACB7",
"[  c #9BAEB9",
"{  c #AEAFAF",
"}  c #BDAFB2",
"|  c #B2B2B2",
" . c gray70",
".. c #B4B4B4",
"X. c gray71",
"o. c #B0B2BB",
"O. c #B3B4B8",
"+. c #BEB6BA",
"@. c #B9B9B9",
"#. c #C3B6BA",
"$. c #C3BCBF",
"%. c #C7BCBF",
"&. c #EFC192",
"*. c #F7CD9B",
"=. c #F8CE9C",
"-. c #A2A9C5",
";. c #B5B8C4",
":. c #BDB8CB",
">. c #C2BDCA",
",. c #C3BECB",
"<. c #E0B6C1",
"1. c #C1C0C2",
"2. c #C7C1C0",
"3. c #C6C6C6",
"4. c gray79",
"5. c #CECAC9",
"6. c gray80",
"7. c gray81",
"8. c #DBC6CF",
"9. c #D3D0CF",
"0. c #C9CDDE",
"q. c #C9CEDF",
"w. c #D4D0D2",
"e. c gray83",
"r. c #D8D8D8",
"t. c #CED3E2",
"y. c #CFD4E3",
"u. c #D4D8E6",
"i. c #D8DBE8",
"p. c #D9DDE9",
"a. c #CED7FE",
"s. c #E9DFE5",
"d. c #E4E2E3",
"f. c #E5E5E6",
"g. c #E5E7EF",
"h. c #E9E8E9",
"j. c gray92",
"k. c #EFF0F5",
"l. c gray95",
"z. c #F8F8F8",
"x. c #F9F8F9",
"c. c #F9FAFB",
"v. c white",
/* pixels */
"v.v.v.v.v.v.v.v.v.v.v.v.v.v.v.v.v.v.v.v.v.v.v.v.v.v.v.v.v.v.v.v.",
"v.v.v.v.v.v.v.v.v.[ v.v.v.v.v.v.v.v.v.v.v.v.v.v.v.v.v.v.v.v.v.v.",
"v.v.v.v.v.v.v.v.[ v.] v.v.v.v.v.v.v.v.v.v.v.v.v.v.v.v.v.v.v.v.v.",
"v.v.v.v.v.v.v.v.v.` l l l 8 5 1 r h.l.x.l.h.f.f.h.v.v.v.v.v.v.v.",
"v.v.v.v.v.v.v.v.#.l l l l l l 7 %.<.8.s.z.k.k.k.l.e.e.e.v.v.v.v.",
"v.v.v.v.v.v.v.v.l l = = = = l l l e 1 p :.0.0.0.g.g.g.c.1.1.v.v.",
"v.v.v.v.v.v.v.Y l #         @ l c l e 1 u 1.0.0.0.q.0.u.p.p.6.6.",
"v.v.v.v.v.v.v.M .             . c c f 1 1 h.f.f.r.q.t.0.0.0.y.y.",
"v.v.v.v.v.v.v.N     X X X X       l l w 1 1 v.v.v.a.O.0.0.q.q.q.",
"v.v.v.v.v.v.v.N J K X 4 K 4 X     l l w 1 : x.v.v.a.v.o.q.q.q.0.",
"v.v.v.v.v.v.v.M G F X > H > X     l l w 1 1 1 a.v.a.v.v.;.,.>.A ",
"v.v.v.v.v.v.v.b X X X X X X X X # l l q 1 1 1 ' v.a.v.9.2.A R E ",
"v.v.v.v.v.v.v.v ; X X X X X X X l l f 1 1 1 1 1 v.f.) P ) ) v.v.",
"v.v.v.v.v.v.v.%.l - X X X X X < l j 7 1 1 1 1 +.T U ! 5.v.v.v.v.",
"v.v.v.v.v.v.v.v.d.1 : h j h f l l 5 1 1 1 w.V L S l.x.v.v.v.v.v.",
"v.v.v.v.v.v.v.v.v.x.1 1 1 1 1 l 1 1 1 ( R D A v.v.v.v.v.v.v.v.a.",
"a.v.v.v.v.v.v.v.v.v.v.+.1 1 h l l 2 9 D A d.v.v.v.v.v.v.v.v.a.v.",
"v.v.v.v.v.v.v.v.v.v.h.1 w 7 h =.=.&.C ) v.v.v.v.v.v.v.v.v.v.v.a.",
"v.v.v.v.v.v.v.v.v.v.} q w 6 9 / ^ ~ 1 W x.v.v.v.v.v.v.v.v.v.v.v.",
"v.v.v.v.v.v.v.v.v.v.l c n V t m w w q 1 W ( v.v.v.v.v.v.v.v.v.v.",
"v.v.v.v.v.v.v.v.v.a B Z B , o $ l l j q 1 1 a a s v.v.v.v.v.v.v.",
"v.v.v.v.v.v.v.v.v.1 l l c $ o o & l l w 1 1 1 1 1 0 3 $.v.v.v.v.",
"v.v.v.v.v.v.v.v.v.1 l l c $ o o + l l l 7 1 1 1 1 1 ( v.v.v.v.v.",
"v.v.v.v.v.v.v.v.v.1 l l h $ o o + & l l l 5 1 1 1 1 ( v.v.v.v.v.",
"v.v.v.v.v.v.a.v.v.1 5 l l - o o o o $ j l l 1 1 1 s v.v.v.v.v.v.",
"v.v.v.v.v.v.a.v.a.a 1 f f j O O o o + + i I a a s v.v.v.v.v.v.v.",
"v.v.v.v.v.v.a.v.a.v.( Q r y + + o + * * 6.v.v.v.v.v.v.v.v.v.v.v.",
"v.v.v.v.v.v.v.v.a.v.v.6.d d ..@.@. .d d 4.v.v.v.v.v.v.v.v.v.v.v.",
"v.v.v.v.v.v.v.v.v.v.v.4. . .h.v.v.h. . .4.v.v.v.v.v.v.v.v.v.v.v.",
"v.v.v.v.v.v.v.v.v.v.v.v.{ X.f.v.v.v.-...3.v.v.v.v.v.v.v.v.v.v.v.",
"v.v.v.v.v.v.v.v.v.v.v.v.v.v.v.v.v.a.v.a.v.v.v.v.v.v.v.v.v.v.v.v.",
"v.v.v.v.v.v.v.v.v.v.v.v.v.v.v.v.v.v.a.v.v.v.v.v.v.v.v.v.v.v.v.v."
};
