/* XPM */
static char *_ab5ca9cf13941578dba9d3a47717bd31omwKe3QJVv2Cda5[] = {
/* columns rows colors chars-per-pixel */
"32 32 14 1 ",
"  c None",
". c #323234",
"X c #4F422F",
"o c #444444",
"O c #5F5744",
"+ c #545456",
"@ c #6F634C",
"# c #796B50",
"$ c #6D6D6E",
"% c #887C62",
"& c #9F8E6D",
"* c #AD9A73",
"= c #A7A7A9",
"- c #D3D2E0",
/* pixels */
"                                ",
"                                ",
"                                ",
"            .........           ",
"           .+$$$$$$$+.          ",
"          .o$$$$$$$$$o.         ",
"          .o+$$$$$$$+o.         ",
"          o=+++++++++=o         ",
"         .==---------==.        ",
"      ..o++=---------=++o..     ",
"     .o+$$+++++++++++++$$+o.    ",
"      .++$$$$$$$$$$$$$$$++.     ",
"       ..o+$$$$$$$$$$$+o..      ",
"        X...ooooooooo...X       ",
"        X&****#*#o#****&X       ",
"       XX@##****#*o**##@XX      ",
"        X&&*##*****o#*&&X       ",
"       XXO@&********oo@OXX      ",
"         X%@@@@&&&@@@@..        ",
"         .XX%%&&&&&%%XX.        ",
"        .o.oXXXXXXXXXo.o.       ",
"        .o..++$$$$$++..o.       ",
"       .o.oo+++++++++oo.o.      ",
"       .o.o+++$$$$$+++o.o.      ",
"       .ooo++$$$$$$$++ooo.      ",
"      .oooo++$$$$$$$++oooo.     ",
"      .ooo++$$$$$$$$$++ooo.     ",
"       ..o++$$+++++$$++o..      ",
"        X...............        ",
"         XXXXXXX X--X           ",
"             XX   XX            ",
"                                "
};
