/* XPM */
static char *result[] = {
/* columns rows colors chars-per-pixel */
"32 32 16 1 ",
"  c #323234",
". c #4F442D",
"X c #444444",
"o c #5E5943",
"O c #545456",
"+ c #6F664A",
"@ c #796E4E",
"# c #6D6D6E",
"$ c #877F60",
"% c #9F926A",
"& c #AC9E70",
"* c #9AACB8",
"= c #A7A7A9",
"- c #D5CFE1",
"; c #CDD6FE",
": c white",
/* pixels */
"::::::::::::::::::::::::::::::::",
"::::::::::::::::::::::*:::::::::",
":::::::::::::::::::::*:*::::::::",
"::::::::::::         :*:::::::::",
"::::::::::: O#######O ::::::::::",
":::::::::: X#########X :::::::::",
":::::::::: XO#######OX :::::::::",
"::::::::::X=OOOOOOOOO=X:::::::::",
"::::::;:: ==---------== ::::::::",
"::::::  XOO=---------=OOX  :::::",
"::::: XO##OOOOOOOOOOOOO##OX ::::",
":::::: OO###############OO :::::",
":::::::  XO###########OX  ::::::",
"::::::::.   XXXXXXXXX   .:::::::",
"::::::::.%&&&&@&@X@&&&&%.:::::::",
";::::::..+@@&&&&@&X&&@@+..::::::",
":;::::::.%%&@@&&&&&X@&%%.::::::;",
";::::::..o+%&&&&&&&&XX+o..::::::",
":::::::::.$++++%%%++++  ::::::::",
"::::::::: ..$$%%%%%$$.. ::::::::",
":::::::: X X.........X X :::::::",
":::::::: X  OO#####OO  X :::::::",
"::::::: X XXOOOOOOOOOXX X ::::::",
"::::::: X XOOO#####OOOX X ::::::",
"::::::: XXXOO#######OOXXX ::::::",
":::::: XXXXOO#######OOXXXX :::::",
":::::: XXXOO#########OOXXX :::::",
":::::::  XOO##OOOOO##OOX  ::::::",
"::::::::.               ::::::::",
":::::::::.......:.--.:::::::::::",
"::::::::::::;..:::..::::::::::::",
":::::::::::::;::::::::::::::::::"
};
