/* XPM */
static char *_6f999c340104e1183d1e78b88a19b67ezUZ5T3yXsmX6pWr[] = {
/* columns rows colors chars-per-pixel */
"32 32 125 2 ",
"   c black",
".  c #060000",
"X  c gray3",
"o  c #110001",
"O  c #10070A",
"+  c gray8",
"@  c #151414",
"#  c #151515",
"$  c #1B1115",
"%  c #1C1215",
"&  c #20060B",
"*  c #3A050E",
"=  c #34061A",
"-  c #330D18",
";  c #370C18",
":  c #3A0B18",
">  c #3A211C",
",  c #202020",
"<  c #57051B",
"1  c #670015",
"2  c #63031C",
"3  c #700215",
"4  c #5A0020",
"5  c #5C0021",
"6  c #5F0127",
"7  c #530E22",
"8  c #620021",
"9  c #670021",
"0  c #6A0021",
"q  c #6D0021",
"w  c #61062D",
"e  c #770021",
"r  c #780021",
"t  c #7D0022",
"y  c #641134",
"u  c #651437",
"i  c #7D2A2A",
"p  c #783D4D",
"a  c #7A495E",
"s  c #765C67",
"d  c #83001F",
"f  c #84001E",
"g  c #830022",
"h  c #870022",
"j  c #880022",
"k  c #8C0022",
"l  c #8A0329",
"z  c #920022",
"x  c #920024",
"c  c #920229",
"v  c #91062D",
"b  c #9C0B2E",
"n  c #911A28",
"m  c #901135",
"M  c #9E1131",
"N  c #901839",
"B  c #90193A",
"V  c #912B2B",
"C  c #8B372D",
"Z  c #8A3E2D",
"A  c #91332C",
"S  c #D10022",
"D  c #91402E",
"F  c #8F4E3F",
"G  c #914231",
"H  c #904738",
"J  c #8F5144",
"K  c #905143",
"L  c #93425A",
"P  c #95495E",
"I  c #865552",
"U  c #89585A",
"Y  c #905E52",
"T  c #92665D",
"R  c #B4735A",
"E  c #866063",
"W  c #936860",
"Q  c #946C63",
"!  c #9A7E78",
"~  c #C56761",
"^  c #E0E151",
"/  c #C5C772",
"(  c #8C7D8D",
")  c #98808A",
"_  c #A5808B",
"`  c #A5918D",
"'  c #A4939A",
"]  c #8D9CA8",
"[  c #AB9CA2",
"{  c #9AAAB7",
"}  c #9BAEB9",
"|  c #AEAFAF",
" . c gray71",
".. c #B0B2BC",
"X. c #BEB6BA",
"o. c #D59F81",
"O. c #C3BCBF",
"+. c #C7BCBF",
"@. c #F8CE9C",
"#. c #A2A9C5",
"$. c #BBBFCC",
"%. c #C2BDCA",
"&. c #C3C4C5",
"*. c #C6C6C6",
"=. c #CCC6C9",
"-. c #CECAC9",
";. c #D0C9CB",
":. c #D1CDCF",
">. c #C8CCDD",
",. c #C9CEDF",
"<. c #CFD4E3",
"1. c #D3D7E5",
"2. c #C3CCF1",
"3. c #CCD5FC",
"4. c #CED7FE",
"5. c #E3E1E2",
"6. c #E4E2E3",
"7. c #E4E4E4",
"8. c #E7E6E6",
"9. c #EBEBE9",
"0. c gray95",
"q. c #F8F7F8",
"w. c #F9F8F9",
"e. c gray99",
"r. c white",
/* pixels */
"r.r.r.r.r.r.r.r.r.r.r.r.r.r.r.r.r.r.r.r.r.r.r.r.r.r.r.r.r.r.r.r.",
"r.r.r.r.r.r.r.r.r.} r.r.r.r.r.r.r.r.r.r.r.r.r.r.r.r.r.r.r.r.r.r.",
"r.r.r.r.r.r.r.r.} r.} r.r.r.r.r.r.r.r.r.r.r.r.r.r.r.r.r.r.r.r.r.",
"r.r.r.r.r.r.r.r.r.} r.r.r.r.r.r.r.r.r.r.r.r.r.r.r.r.r.r.r.r.r.r.",
"r.r.r.r.r.r.r.r.r.r.+.=.;.=.O.X.X.r.r.r.r.r.r.r.r.r.r.r.r.r.r.r.",
"r.r.r.r.r.r.r.r.r._ z z z t e 5 5 ) [ r.r.r.r.r.r.r.r.r.r.r.r.r.",
"r.r.r.r.r.r.r.r.P z z z z z z g g 5 6 [ r.r.r.r.r.r.r.r.r.r.r.r.",
"r.r.r.r.r.r.r.r.x z .       g z z j 5 6 O.r.r.r.r.r.r.r.r.r.r.r.",
"r.r.r.r.r.r.r.N z             z z z g 5 5 5.r.r.r.4.r.r.r.r.r.r.",
"r.r.r.r.r.r.r.N                 z z g 5 5 5.r.r.r.4.r.r.r.r.r.r.",
"r.r.r.r.r.r.r.m o o X X O X       z z e 5 5 r.4.r.4.r.r.r.r.r.r.",
"r.r.r.r.r.r.r.v S S X * S * X     z z r 5 5 X.4.r.4.r.r.r.r.r.r.",
"r.r.r.r.r.r.r.c 3 3 X & 3 & X     z z e 5 5 5 4.r.r.r.r.r.r.r.r.",
"r.r.r.r.r.r.r.l X X X X X X X X 1 z h 8 5 5 5 a / r.r.r.r.r.r.r.",
"r.r.r.r.r.r.r.m f X X X X X X X z z h 4 5 5 4 < 9.r.r.r.r.r.r.r.",
"r.r.r.^ r.r.r.r.x 4 X X X X X z z k 5 4 5 5 5 r.r.r.r.r.^ r.r.4.",
"4.r.r.r.r.r.r.r.r.4 8 z z z z z z 5 5 5 5 5.r.r.r.r.r.r.r.r.3.r.",
"9.r.r.r.r.r.r.r.r.r.y w 5 4 9 z 8 5 5 ) 0.F J J r.r.r.r.r.r.^ 4.",
"r.r.r.r.r.r.r.r.r.r.r.' 8 5 k z z 0 p ! Y W r.r.r.r.r.r.r.r.r.r.",
"r.r.r.r.r.r.r.r.r.r.q.8 e 0 r z ~ ~ R U 8.r.r.r.r.r.r.r.r.r.r.r.",
"r.r.r.r.r.r.r.r.r.r.L h r = i V @.@.o.u :.r.r.r.r.r.r.r.r.r.r.r.",
"r.r.r.r.r.r.r.r.r.r.z z n Z D z M b l 5 w ] r.r.r.r.r.r.r.r.r.r.",
"r.r.r.r.r.r.r.r.r.r.z D D > + k z z z r 5 5 { r.r.r.r.r.r.r.r.r.",
"r.r.r.r.r.r.r.r.e.w.D V z : + + z z z e 5 5 w.r.r.r.r.r.r.r.r.r.",
"r.r.r.r.r.r.2.9.G C A z z ; + + h z z z q < 5 5.r.r.r.r.r.r.r.r.",
"r.r.r.r.w.-.I W E 5 h z z - + + + z z z x 8 5 5 O.r.r.r.r.r.r.r.",
"r.r.r.` ! T ( e.4.5 5 z z 2 + + + < z z z 5 5 5 6 r.r.r.r.r.r.r.",
"r.Q Q H -.8.r.r.4.5 5 0 9 h % + + + 7 t q 5 5 X.O.r.r.r.r.r.r.r.",
"J Z %.9.r.r.r.r.r.5.5 4 4 4 $ + + % s 6 < 5 6.r.r.r.r.r.r.r.r.r.",
"%.>.,.$.r.r.r.r.r.r.r.r.|  .7.e.r.r.#. .&.r.r.r.r.r.r.r.r.r.r.r.",
",.,.,.,...r.r.r.r.r.r.r.r.r.r.r.r.4.r.4.r.r.r.r.r.r.r.r.r.r.r.r.",
"1.1.<.,.,.,.&.9.r.r.r.r.r.r.r.r.r.r.4.r.r.r.r.r.r.r.r.r.r.r.r.r."
};
