/* XPM */
static char *result[] = {
/* columns rows colors chars-per-pixel */
"32 32 191 2 ",
"   c black",
".  c #010000",
"X  c #020001",
"o  c #020202",
"O  c #040001",
"+  c #110005",
"@  c #120005",
"#  c #111111",
"$  c #1B1B1B",
"%  c #1D1B1B",
"&  c gray11",
"*  c #1E1C1C",
"=  c #27000A",
"-  c #2A000B",
";  c #22191C",
":  c #29181C",
">  c #3D131E",
",  c #3A141E",
"<  c #3C3C3C",
"1  c #480014",
"2  c #51081C",
"3  c #41121F",
"4  c #460520",
"5  c #5A0224",
"6  c #5C0026",
"7  c #5D0026",
"8  c #5D0127",
"9  c #5F0026",
"0  c #5D0228",
"q  c #5F082C",
"w  c #4D1E23",
"e  c #501824",
"r  c #561926",
"t  c #610026",
"y  c #620026",
"u  c #670026",
"i  c #6C0521",
"p  c #6A0026",
"a  c #6B0026",
"s  c #6D0026",
"d  c #660D28",
"f  c #710026",
"g  c #730026",
"h  c #760026",
"j  c #770026",
"k  c #760027",
"l  c #7A0027",
"z  c #6A1229",
"x  c #6B1329",
"c  c #610E31",
"v  c #572F27",
"b  c #5C2E42",
"n  c #702041",
"m  c #712E42",
"M  c #72294B",
"N  c #7B384A",
"B  c #773354",
"V  c #794A5E",
"C  c #7D5264",
"Z  c #7C7C7C",
"A  c #830027",
"S  c #850225",
"D  c #850027",
"F  c #860027",
"G  c #870027",
"H  c #8A0126",
"J  c #8B0027",
"K  c #8D0126",
"L  c #8D0127",
"P  c #8F0026",
"I  c #8E0027",
"U  c #900027",
"Y  c #910027",
"T  c #910127",
"R  c #920329",
"E  c #910428",
"W  c #910628",
"Q  c #910728",
"!  c #91082D",
"~  c #900E31",
"^  c #8F1838",
"/  c #8F1E3C",
"(  c #83212C",
")  c #90212C",
"_  c #90282E",
"`  c #90302F",
"'  c #8A3B31",
"]  c #8A3C32",
"[  c #8D3E31",
"{  c #903530",
"}  c #904232",
"|  c #904434",
" . c #E2294F",
".. c #E3294F",
"X. c #F82B56",
"o. c #FE2B57",
"O. c #FC2C57",
"+. c #FF2C58",
"@. c #8E4F41",
"#. c #8F5044",
"$. c #8F5245",
"%. c #92445A",
"&. c #8F5E53",
"*. c #955264",
"=. c #926860",
"-. c #936C63",
";. c #95716A",
":. c #876472",
">. c #876B76",
",. c #997D77",
"<. c #C68B75",
"1. c #CB9179",
"2. c #DAA57C",
"3. c #977F89",
"4. c #A38E8A",
"5. c #A3908C",
"6. c #A4908C",
"7. c #8A97A2",
"8. c #9998B8",
"9. c #99AAB6",
"0. c #9AACB8",
"q. c gray68",
"w. c #BCADB1",
"e. c #AFB1BA",
"r. c #B1B1B1",
"t. c #B2B2B2",
"y. c gray70",
"u. c #B2B3B7",
"i. c #B4B4B4",
"p. c #BDB5B9",
"a. c gray72",
"s. c #C2B5B9",
"d. c #C2BBBE",
"f. c #C6BBBE",
"g. c #EEC091",
"h. c #F7CC9A",
"j. c #F8CD9B",
"k. c #C6C0BF",
"l. c #A1A8C4",
"z. c #B4B7C3",
"x. c #BCB7CA",
"c. c #C0BFC1",
"v. c #C1BCC9",
"b. c #C2BDCA",
"n. c #DFB5C0",
"m. c #D4BBC5",
"M. c #C0C0C0",
"N. c #C5C5C5",
"B. c #C8C8C8",
"V. c #CBCBCB",
"C. c #CDC9C8",
"Z. c gray80",
"A. c #CECECE",
"S. c #DAC5CE",
"D. c #D2CFCE",
"F. c #C8CCDD",
"G. c #C8CDDE",
"H. c #D3CFD1",
"J. c LightGray",
"K. c gray83",
"L. c #D7D7D7",
"P. c #CDD2E1",
"I. c #CED3E2",
"U. c #D3D7E5",
"Y. c #D7DAE7",
"T. c #D8DCE8",
"R. c #CDD6FE",
"E. c #E8DEE4",
"W. c #E3E1E2",
"Q. c #E3E2E2",
"!. c #E4E4E4",
"~. c #E4E4E5",
"^. c gray90",
"/. c #E6E5E5",
"(. c #E4E6EE",
"). c #E4E6EF",
"_. c #E8E7E8",
"`. c #E9E9E9",
"'. c #EAEAEA",
"]. c #EFF0F5",
"[. c gray95",
"{. c #F0F2F6",
"}. c #F2F4F7",
"|. c #F8F8F8",
" X c #F9F8F9",
".X c #F9FAFB",
"XX c gray99",
"oX c #FDFCFD",
"OX c #FDFDFD",
"+X c #FEFDFD",
"@X c white",
/* pixels */
"@X@X@X@X@X@X@X@X@X@X@X@X@X@X@X@X@X@X@X@X@X@X@X@X@X@X@X@X@X@X@X@X",
"@X@X@X@X@X@X@X@X@X@X@X@X@X@X@X@X@X@X@X@X@X@X0.@X@X@X@X@X@X@X@X@X",
"@X@X@X@X@X@X@X@X@X@X@X@X@X@X@XoXoX+X@X@X@X9.@X0.@X@X@X@X@X@X@X@X",
"@X@X@X@X@X@X@X'.^.^.'.[.|.[.'.n 6 t s Y Y Y 7.@X@X@X@X@X@X@X@X@X",
"@X@X@X@XJ.K.J.[.].].{.}.E.S.m.n.a Y Y Y Y Y Y s.@X@X@X@X@X@X@X@X",
"@X@XM.M..X).(.).G.G.G.x.B 6 h Y Y P 1 1 1 1 Y Y @X@X@X@X@X@X@X@X",
"A.V.T.Y.U.G.G.G.G.G.c.M 6 l Y Y Y =         - Y *.@X@X@X@X@X@X@X",
"P.I.G.G.G.G.G.L.~.~._.6 6 A Y Y +             @ ^ @X@X@X@X@X@X@X",
"G.G.G.G.G.u.R.@X@XoX0 6 j Y Y O   o # # # #   X / @X@X@X@X@X@X@X",
"F.G.G.G.e.@XR.@X@X X6 6 h Y Y X   # r +.r # O.o./ @X@X@X@X@X@X@X",
"} v.b.z.@X@XR.@XR.6 6 6 h Y Y . o # e X.e #  ...^ @X@X@X@X@X@X@X",
";.-.} k.D.@XR.@X8.6 6 6 f U Y - # # # # # # # # ~ @X@X@X@X@X@X@X",
"@X@X6.4.#.6./.@X6 6 6 6 6 F Y Y # # # # # # # 2 ! @X@X@X@X@X@X@X",
"@X@X@X@XC.,.&.=.p.6 6 6 6 u I Y i # # # # # 4 Y f.@X@X@X@X@X@X@X",
"@X@X@X@X@XXX[.@.$.] H.6 6 6 t Y Y S H K H 5 6 W.@X@X@X@X@X@X@X@X",
"R.@X@X@X@X@X@X+XOX} | -.3.6 6 7 U 6 6 6 6 6  X@X@X@X@X@X@X@X@X@X",
"@XR.@X@X@X@X@X@X@X@XQ.} } x 8 R R J 6 6 p.@X@X@X@X@X@X@X@X@X@XR.",
"R.@X@X@X@X@X@X@X@X@X@X@X5.[ g.j.h.G p h 6 _.@X@X@X@X@X@X@X@X@X@X",
"@X@X@X@X@X@X@X@X@X@X@X X:.6 <.1.2.z d h g w.@X@X@X@X@X@X@X@X@X@X",
"@X@X@X@X@X@X@X@X@X@X3.:.6 f k j ) v ' ( Q Y @X@X@X@X@X@X@X@X@X@X",
"@X@X@X@X@X@X@XC V V 6 6 f U Y Y > $ w _ { ` V @X@X@X@X@X@X@X@X@X",
"@X@X@X@Xd.q c 6 6 6 6 6 h Y Y : $ $ , T E W 6 @X@X@X@X@X@X@X@X@X",
"@X@X@X@X@X3.6 6 6 6 6 a Y Y Y % $ $ > Y Y Y 7 @X@X@X@X@X@X@X@X@X",
"@X@X@X@X@X3.6 6 6 6 y Y Y Y : $ $ $ > Y Y Y 7 @X@X@X@X@X@X@X@X@X",
"@X@X@X@X@X@XC 6 6 6 Y Y L , $ $ $ $ 3 Y Y t 6 @X@XR.@X@X@X@X@X@X",
"@X@X@X@X@X@X@XC V V %.N $ $ $ $ $ ; U F D 9 V R.@XR.@X@X@X@X@X@X",
"@X@X@X@X@X@X@X@X@X@X@XV.< < & $ $ * m b >.3.@XR.@XR.@X@X@X@X@X@X",
"@X@X@X@X@X@X@X@X@X@X@XZ.Z Z t.a.a.t.Z Z Z.@X@XR.@X@X@X@X@X@X@X@X",
"@X@X@X@X@X@X@X@X@X@X@XB.y.r.`.@X@X`.r.y.B.@X@X@X@X@X@X@X@X@X@X@X",
"@X@X@X@X@X@X@X@X@X@X@XN.i.l.@X@X@X!.i.q.@X@X@X@X@X@X@X@X@X@X@X@X",
"@X@X@X@X@X@X@X@X@X@X@X@XR.@XR.@X@X@X@X@X@X@X@X@X@X@X@X@X@X@X@X@X",
"@X@X@X@X@X@X@X@X@X@X@X@X@XR.@X@X@X@X@X@X@X@X@X@X@X@X@X@X@X@X@X@X"
};
