/* XPM */
static char *eb57996779d3488fe420f0fdf67741abKnDhrPC7jUe2SPG2[] = {
/* columns rows colors chars-per-pixel */
"32 32 136 2 ",
"   c black",
".  c #060000",
"X  c #080001",
"o  c #0D070A",
"O  c gray3",
"+  c #19060B",
"@  c gray8",
"#  c #151515",
"$  c #171414",
"%  c #1B1115",
"&  c #1C1215",
"*  c #2A050E",
"=  c #34061A",
"-  c #330D18",
";  c #370C18",
":  c #3A0B18",
">  c #3A211C",
",  c #500215",
"<  c #57051B",
"1  c #670015",
"2  c #63031C",
"3  c #5A0020",
"4  c #5C0021",
"5  c #5F0127",
"6  c #530E22",
"7  c #5F0228",
"8  c #620021",
"9  c #670021",
"0  c #6A0021",
"q  c #6D0021",
"w  c #61062D",
"e  c #770021",
"r  c #780021",
"t  c #7D0022",
"y  c #641134",
"u  c #651437",
"i  c #7D2A2A",
"p  c #783D4D",
"a  c #7A495E",
"s  c #765C67",
"d  c #83001F",
"f  c #84001E",
"g  c #830022",
"h  c #840022",
"j  c #870022",
"k  c #880022",
"l  c #8C0022",
"z  c #8A0329",
"x  c #920022",
"c  c #920024",
"v  c #920229",
"b  c #91062D",
"n  c #9C0B2E",
"m  c #9C1125",
"M  c #911A28",
"N  c #901135",
"B  c #9E1131",
"V  c #901839",
"C  c #90193A",
"Z  c #912B2B",
"A  c #8B372D",
"S  c #8A3E2D",
"D  c #91332C",
"F  c #91402E",
"G  c #8F4E3F",
"H  c #914231",
"J  c #904738",
"K  c #8F5144",
"L  c #93425A",
"P  c #95495E",
"I  c #865552",
"U  c #89585A",
"Y  c #905E52",
"T  c #92665D",
"R  c #B4735A",
"E  c #866063",
"W  c #936860",
"Q  c #946C63",
"!  c #9A7E78",
"~  c #C56761",
"^  c #EDE63E",
"/  c #EDEF47",
"(  c #E5E64E",
")  c #F2F444",
"_  c #F6F842",
"`  c #E0E151",
"'  c #CBCC68",
"]  c #C5C772",
"[  c #8C7D8D",
"{  c #98808A",
"}  c #98818A",
"|  c #A5808B",
" . c #A5918D",
".. c #A4939A",
"X. c #BFBF94",
"o. c #8D9CA8",
"O. c #AB9CA2",
"+. c #9AAAB7",
"@. c #9BAEB9",
"#. c #AEAFAF",
"$. c gray71",
"%. c #B0B2BC",
"&. c #BEB6BA",
"*. c #D59F81",
"=. c #C3BCBF",
"-. c #C7BCBF",
";. c #C0C084",
":. c #F8CE9C",
">. c #A2A9C5",
",. c #C3BECA",
"<. c #BDC5E8",
"1. c #C3C4C5",
"2. c #C6C6C6",
"3. c #CCC6C9",
"4. c #CEC6C9",
"5. c #CECAC9",
"6. c #D0CDCC",
"7. c #D1CDCF",
"8. c #CACFDD",
"9. c #C9CEDF",
"0. c #CFD4E3",
"q. c #D3D7E5",
"w. c #C3CCF1",
"e. c #CDD6FC",
"r. c #CED7FE",
"t. c #E3E1E2",
"y. c #E4E2E3",
"u. c #E4E3E3",
"i. c #E4E4E4",
"p. c #E7E6E6",
"a. c #EBEBE9",
"s. c gray95",
"d. c #F9F8F9",
"f. c gray99",
"g. c #FDFCFD",
"h. c white",
/* pixels */
"h.h.h.h.h.h.h.h.h.h.h.h.h.h.h.h.h.h.h.h.h.h.h.h.h.h.h.h.h.h.h.h.",
"h.h.h.h.h.h.h.h.h.@.h.h.h.h.h.h.h.h.h.h.h.h.h.h.h.h.h.h.h.h.h.h.",
"h.h.h.h.h.h.h.h.@.h.@.h.h.h.h.h.h.h.h.h.h.h.h.h.h.h.h.h.h.h.h.h.",
"h.h.h.h.h.h.h.h.h.@.h.h.h.h.h.h.h.h.h.h.h.h.h.h.h.h.h.h.h.h.h.h.",
"h.h.h.h.h.h.h.h.h.h.-.4.5.3.,.=.&.h.h.h.h.h.h.h.h.h.h.h.h.h.h.h.",
"h.h.h.h.h.h.h.h.h.| x x x t e < 3 { O.h.h.h.h.h.h.h.h.h.h.h.h.h.",
"h.h.h.h.h.h.h.h.P x x x x x x g h 4 5 O.h.h.h.h.h.h.h.h.h.h.h.h.",
"h.h.h.h.h.h.h.h.c x . .     g x x k 4 5 =.h.h.h.h.h.h.h.h.h.h.h.",
"h.h.h.h.h.h.h.V x             x x x g 4 4 y.h.h.h.e.h.h.h.h.h.h.",
"h.h.h.h.h.h.h.V                 x x g 4 4 t.h.h.h.e.h.h.h.h.h.h.",
"h.h.h.h.h.h.h.N X X O O o O       x x e 4 4 h.e.h.e.h.h.h.h.h.h.",
"h.h.h.h.h.h.h.b x x O * x * O     x x e 4 4 &.e.h.e.h.h.h.h.h.h.",
"h.h.h.h.h.h.h.v , , O + , + O     x x e 4 4 4 e.h.h.h.h.h.h.h.h.",
"h.h.h.h.h.h.h.z O O O O O O O O 1 x h 8 4 4 4 a ' ;.h.h.h.h.h.h.",
"h.h.h.h.h.X./ m f O O O O O O O x x h 4 4 4 3 4 a.s.;.7.h.h.h.h.",
"h.h.h.` h.h.h.h.c 3 O O O O O x x l 4 4 4 4 4 h.h.h.;.^ _ h.h.e.",
"e.) ) h.h.h.h.h.h.4 8 x x x x x x 4 4 4 4 t.h.h.h.h.h.h.h.) _ h.",
"( d.h.h.h.h.h.h.h.h.y w 4 4 2 x 8 4 4 { s.G K K h.h.h.h.h.h.` <.",
"h.h.h.h.h.h.h.h.h.h.h...8 4 l x x 0 p ! Y W h.h.h.h.h.h.h.h.h.] ",
"h.h.h.h.h.h.h.h.h.h.d.8 r 8 r x ~ ~ R U p.h.h.h.h.h.h.h.h.h.h.h.",
"h.h.h.h.h.h.h.h.h.h.L h r = i Z :.:.*.u 7.h.h.h.h.h.h.h.h.h.h.h.",
"h.h.h.h.h.h.h.h.h.h.x x M S F x B n z 4 w o.h.h.h.h.h.h.h.h.h.h.",
"h.h.h.h.h.h.h.h.h.h.x F F > # x x x x r 4 4 +.h.h.h.h.h.h.h.h.h.",
"h.h.h.h.h.h.h.h.h.d.F Z c ; @ @ x x x r 4 4 d.h.h.h.h.h.h.h.h.h.",
"h.h.h.h.h.h.w.a.H A D c c ; @ @ g x x x q 4 4 y.h.h.h.h.h.h.h.h.",
"h.h.h.h.d.7.I T E 4 h c x - @ # @ x x x x 4 4 4 =.h.h.h.h.h.h.h.",
"h.h.h. .! T [ h.e.4 4 x x 2 % # @ < x x x 8 4 4 5 h.h.h.h.h.h.h.",
"h.Q Q J 5.p.h.h.e.4 4 0 2 k % # @ # 6 t 0 4 4 &.=.h.h.h.h.h.h.h.",
"( ^ t.p.h.h.h.h.h.t.< 3 4 3 % @ @ & s 5 < 4 y.h.h.h.h.h.h.h.h.h.",
",.8._ ` h.h.h.h.h.h.h.h.#.$.t.h.f.h.>.$.1.h.h.h.h.h.h.h.h.h.h.h.",
"9.9.9.9.%.h.h.h.h.h.h.h.h.h.h.h.h.e.h.e.h.h.h.h.h.h.h.h.h.h.h.h.",
"q.0.0.9.9.9.1.a.` ` a.h.h.h.h.h.h.h.e.h.h.h.h.h.h.h.h.h.h.h.h.h."
};
