/* XPM */
static char *e0b83373cfcc467fd88bdda1d5b9339aHHo9cU1sp7RKrx42[] = {
/* columns rows colors chars-per-pixel */
"32 32 139 2 ",
"   c black",
".  c #0A0001",
"X  c gray3",
"o  c gray8",
"O  c #171414",
"+  c #1C1215",
"@  c #220003",
"#  c #250003",
"$  c #370C18",
"%  c #3A0B18",
"&  c #3F0A19",
"*  c #241115",
"=  c #3A211C",
"-  c #393939",
";  c #46000C",
":  c #44011A",
">  c #4E011F",
",  c #500215",
"<  c #5A001F",
"1  c #4F111F",
"2  c #6C011B",
"3  c #5C0021",
"4  c #5F0228",
"5  c #551221",
"6  c #610021",
"7  c #670021",
"8  c #6B0021",
"9  c #6D0021",
"0  c #6D0D25",
"q  c #720021",
"w  c #770021",
"e  c #780021",
"r  c #7E0128",
"t  c #761B28",
"y  c #562021",
"u  c #5C2A40",
"i  c #722A40",
"p  c #74284C",
"a  c #762B4F",
"s  c #7C3549",
"d  c #7A495E",
"f  c #7E5164",
"g  c gray49",
"h  c #860020",
"j  c #870022",
"k  c #8B0021",
"l  c #8E0021",
"z  c #8C0022",
"x  c #910022",
"c  c #920022",
"v  c #920524",
"b  c #920229",
"n  c #91062D",
"m  c #970B2E",
"M  c #911C29",
"N  c #901135",
"B  c #9E1131",
"V  c #901839",
"C  c #85302B",
"Z  c #91392D",
"A  c #913C2D",
"S  c #903E2E",
"D  c #91402E",
"F  c #8F4E3F",
"G  c #914231",
"H  c #914434",
"J  c #904738",
"K  c #E3244E",
"L  c #E4244E",
"P  c #F82755",
"I  c #FE2756",
"U  c #FC2856",
"Y  c #905143",
"T  c #93425A",
"R  c #916055",
"E  c #884260",
"W  c #8C4965",
"Q  c #965164",
"!  c #946C63",
"~  c #886473",
"^  c #8D6274",
"/  c #886B77",
"(  c #947577",
")  c #C56661",
"_  c #C58966",
"`  c #98808A",
"'  c #A48F8B",
"]  c #A5918D",
"[  c #A79490",
"{  c #8B98A3",
"}  c #9A99B9",
"|  c #BA96A7",
" . c #9AACB7",
".. c #9BAEB9",
"X. c #AEAFAF",
"o. c #B3A7A4",
"O. c #B9A6AE",
"+. c #B2B2B2",
"@. c gray70",
"#. c gray71",
"$. c #BDB5B4",
"%. c #B0B2BA",
"&. c #B3B4B8",
"*. c #BEB6BA",
"=. c #B9B9B9",
"-. c #C88194",
";. c #C3B6BA",
":. c #C3BCBB",
">. c #C7BCBF",
",. c #F2C696",
"<. c #F8CE9C",
"1. c #A2A9C5",
"2. c #C1C1C1",
"3. c #C6C6C6",
"4. c #C4C1CF",
"5. c gray79",
"6. c gray80",
"7. c gray81",
"8. c #D3D0CF",
"9. c #C3C3D5",
"0. c #C9CEDF",
"q. c #D4D0D2",
"w. c gray83",
"e. c #D5D5D5",
"r. c #CED3E2",
"t. c #D5D9E6",
"y. c #D8DBE8",
"u. c #CED7FE",
"i. c #E4E2E3",
"p. c #E4E5E5",
"a. c gray90",
"s. c #E5E7EF",
"d. c gray92",
"f. c #F2F1F2",
"g. c gray95",
"h. c #F4F5F8",
"j. c #F9F8F9",
"k. c gray99",
"l. c white",
/* pixels */
"l.l.l.l.l.l.l.l.l.l.l.l.l.l.l.l.l.l.l.l.l.l.l.l.l.l.l.l.l.l.l.l.",
"l.l.l.l.l.l.l.l.l...l.l.l.l.l.l.l.l.l.l.l.l.l.l.l.l.l.l.l.l.l.l.",
"l.l.l.l.l.l.l.l...l. .l.l.l.l.l.l.l.l.l.l.l.l.l.l.l.l.l.l.l.l.l.",
"l.l.l.l.l.l.l.l.l.{ c c c 9 6 3 3 a.f.l.l.l.l.l.l.l.l.l.l.l.l.l.",
"l.l.l.l.l.l.l.l.;.c c c c c c 8 W E ^ e.e.7.7.6.7.l.l.l.l.l.l.l.",
"l.l.l.l.l.l.l.l.c c ; ; ; ; c c -.-.| s.s.s.s.s.l.2.2.*.j.l.l.l.",
"l.l.l.l.l.l.l.Q c #         @ c c c r p p 9.0.0.t.t.t.h.7.6.7.l.",
"l.l.l.l.l.l.l.N .             . c c h 3 3 e.0.0.0.0.0.r.r.r.l.d.",
"l.l.l.l.l.l.l.V     X X X X       c c e 3 3 j.l.a.0.0.0.0.0.0.0.",
"l.l.l.l.l.l.l.V I U X 5 U 5 X     c c w 3 3 h.l.l.u.&.0.0.0.0.0.",
"l.l.l.l.l.l.l.N L K X 1 P 1 X     c c w 3 3 3 u.l.u.l.%.0.0.0.4.",
"l.l.l.l.l.l.l.n X X X X X X X X # c c q 3 3 3 } l.u.l.l.&.O.O.S ",
"l.l.l.l.l.l.l.b , X X X X X X X c c k 3 3 3 3 3 l.l.l.o.] S ] [ ",
"l.l.l.l.l.l.l.>.c : X X X X X 2 c l 7 3 3 3 3 *.l.8.R H $.:.l.l.",
"l.l.l.l.l.l.l.l.i.3 < k l k h c c 6 3 3 3 q.i.l.F J ' f.l.l.l.l.",
"l.l.l.l.l.l.l.l.l.j.3 3 3 3 3 c 3 3 3 ` l.l.G G Y l.l.l.l.l.l.u.",
"u.l.l.l.l.l.l.l.l.l.l.*.3 3 k l c 3 d l.! G G l.l.l.l.l.l.l.u.l.",
"l.l.l.l.l.l.l.l.l.l.d.3 w 8 h B B m 0 G J d.l.l.l.l.l.l.l.l.l.u.",
"l.l.l.l.l.l.l.l.l.l.$.w w > 3 <.<.,.C ( j.l.l.l.l.l.l.l.l.l.l.l.",
"l.l.l.l.l.l.l.l.l.l.x x w y t _ ) ) q 3 ~ ` l.l.l.l.l.l.l.l.l.l.",
"l.l.l.l.l.l.l.l.l.d c v S D = = c c c q 3 3 d d f l.l.l.l.l.l.l.",
"l.l.l.l.l.l.l.l.l.3 Z S M : O o * c c w 3 3 3 3 3 4 4 :.l.l.l.l.",
"l.l.l.l.l.l.l.l.l.3 c c l % o o O c c c 8 3 3 3 3 3 ` l.l.l.l.l.",
"l.l.l.l.l.l.l.l.l.3 c c l $ o o o * c c c 6 3 3 3 3 ` l.l.l.l.l.",
"l.l.l.l.l.l.u.l.l.3 6 c c & o o o o $ l c c 3 < 3 f l.l.l.l.l.l.",
"l.l.l.l.l.l.u.l.u.d 3 k h c o o o o o o s T d d f l.l.l.l.l.l.l.",
"l.l.l.l.l.l.u.l.u.l.` / y p o o o o - - 6.l.l.l.l.l.l.l.l.l.l.l.",
"l.l.l.l.l.l.l.l.u.l.l.6.` g %.=.=.@.g g 6.l.l.l.l.l.l.l.l.l.l.l.",
"l.l.l.l.l.l.l.l.l.l.l.3.@.@.d.l.l.d.@.@.6.l.l.l.l.l.l.l.l.l.l.l.",
"l.l.l.l.l.l.l.l.l.l.l.l.X.#.p.l.l.l.1.#.3.l.l.l.l.l.l.l.l.l.l.l.",
"l.l.l.l.l.l.l.l.l.l.l.l.l.l.l.l.l.u.l.u.l.l.l.l.l.l.l.l.l.l.l.l.",
"l.l.l.l.l.l.l.l.l.l.l.l.l.l.l.l.l.l.u.l.l.l.l.l.l.l.l.l.l.l.l.l."
};
