/* XPM */
static char *b553a8f5059c43f2be10633e8249a6d6IUpwJK3MgVOjaF2K[] = {
/* columns rows colors chars-per-pixel */
"32 32 134 2 ",
"   c black",
".  c gray3",
"X  c gray8",
"o  c #171414",
"O  c #191314",
"+  c #191215",
"@  c #1A1717",
"#  c #1B1B1B",
"$  c #3F0E19",
"%  c #211917",
"&  c #241A18",
"*  c #212225",
"=  c #46000C",
"-  c #40031C",
";  c #52001E",
":  c #4F111F",
">  c #4C181E",
",  c #6C011B",
"<  c #73011F",
"1  c #5C0021",
"2  c #5B072C",
"3  c #610021",
"4  c #670021",
"5  c #6B0021",
"6  c #680624",
"7  c #690724",
"8  c #6B0B24",
"9  c #61062D",
"0  c #770021",
"q  c #780021",
"w  c #7D0022",
"e  c #7D0624",
"r  c #761A28",
"t  c #771B28",
"y  c #762B4F",
"u  c #6F304A",
"i  c #753E54",
"p  c #774258",
"a  c #6A535D",
"s  c #82001F",
"d  c #830022",
"f  c #840022",
"g  c #8D0022",
"h  c #910022",
"j  c #930023",
"k  c #920024",
"l  c #920B25",
"z  c #920229",
"x  c #91062D",
"c  c #921528",
"v  c #911B28",
"b  c #970B35",
"n  c #971139",
"m  c #981139",
"M  c #842E2B",
"N  c #91232A",
"B  c #912B2B",
"V  c #912C2B",
"C  c #85302B",
"Z  c #8B372D",
"A  c #8C392D",
"S  c #8A3E2D",
"D  c #883631",
"F  c #91402E",
"G  c #924232",
"H  c #914434",
"J  c #944939",
"K  c #BB1F41",
"L  c #912C49",
"P  c #CD2147",
"I  c #FD2857",
"U  c #FF2857",
"Y  c #905244",
"T  c #A97C67",
"R  c #DB927A",
"E  c #DE977D",
"W  c #7F6B8A",
"Q  c #A47D88",
"!  c #C16D85",
"~  c #98808A",
"^  c #9A848D",
"/  c #8F929F",
"(  c #A5808B",
")  c #B3979B",
"_  c #9AAAB7",
"`  c #9BAEB9",
"'  c #AEAFAF",
"]  c #B3B1B1",
"[  c #B2B2B2",
"{  c gray71",
"}  c #BDB5B4",
"|  c #BEB6BA",
" . c #CB8497",
".. c #DDA980",
"X. c #C3B6BA",
"o. c #C0BEBF",
"O. c #F8CE9C",
"+. c #A2A9C5",
"@. c #E0B6C1",
"#. c #C1C1C1",
"$. c gray77",
"%. c #C4C1CF",
"&. c gray80",
"*. c #C3C3D5",
"=. c #CACCDD",
"-. c #C9CEDF",
";. c gray83",
":. c #D0D3DE",
">. c #D8D8D8",
",. c #CACFE0",
"<. c #CCD1E1",
"1. c #CFD2E2",
"2. c #CFD4E3",
"3. c #D4D8E6",
"4. c #D8DBE8",
"5. c #CED7FE",
"6. c #E3E1E2",
"7. c #E4E2E3",
"8. c gray90",
"9. c #E6E5E5",
"0. c #E7E5E6",
"q. c #E5E7EF",
"w. c #E9E8E9",
"e. c #EAE8E9",
"r. c #F2E1E6",
"t. c #F2F1F2",
"y. c #F4F5F8",
"u. c #F9F8F9",
"i. c #F8F9FB",
"p. c #F9FAFB",
"a. c #FAFAFC",
"s. c #FDFCFD",
"d. c #FEFDFD",
"f. c white",
/* pixels */
"f.f.f.f.f.f.f.f.f.f.f.f.f.f.f.f.f.f.f.f.f.f.f.f.f.f.f.f.f.f.f.f.",
"f.f.f.f.f.f.f.f.f.` f.f.f.f.f.f.f.f.&.f.f.f.i.H f.f.f.f.f.f.f.f.",
"f.f.f.f.f.f.f.f.` f.` f.f.f.f.f.f.f.f.q.-.-.G H f.f.f.f.f.f.f.f.",
"f.f.f.f.f.f.f.f.f.` e.t.p.&.p.p.i.,.=.=.-.%.Y f.f.f.f.f.f.f.f.f.",
"f.f.f.f.f.f.f.f.f.X.h ! f.y.1.=.=.,.,.-.-.J f.f.f.f.f.f.f.f.f.f.",
"f.f.f.f.f.f.f.f.( h  .p.q.2.=.,.-.,.=.=.) G f.f.f.f.f.f.f.f.f.f.",
"f.f.f.f.f.f.f.f.g @.4.3.=.=.,.,.-.*.y y D } f.f.f.f.f.f.f.f.f.f.",
"f.f.f.f.f.f.f.L r.2.-.-.-.<.* m n b w r F e.f.f.f.f.f.f.f.f.f.f.",
"f.f.f.f.f.f.f.9.,.=.,./         h h d t 8 7.f.f.f.5.f.f.f.f.f.f.",
"f.f.f.f.f.f.&.1.=.  . . . .       h l F 8 1 i.f.f.5.f.f.f.f.f.f.",
"f.f.f.f.f.#.:.b I I . : I > .     k l t 1 1 6.5.f.5.f.f.f.f.f.f.",
"f.f.f.f.>.$.f.x K K . $ P - .     h c t 1 1 1 5.f.5.f.f.f.f.f.f.",
"f.f.f.f.f.f.f.z . . . . . . . . = h A 8 1 1 1 W f.f.f.f.f.f.f.f.",
"f.f.f.f.f.f.f.x , . . . . . . . j V M 1 1 1 1 1 f.f.f.f.f.f.f.f.",
"f.f.f.f.f.f.f.e.k ; . . . . . s h A 3 1 1 1 1 6.f.f.f.f.f.f.f.f.",
"f.f.f.f.f.f.f.f.f.1 3 h h h h h h Z 1 1 1 6.f.f.f.f.f.f.f.f.f.5.",
"5.f.f.f.f.f.f.f.f.f.3 1 1 1 1 h F Z 1 ~ f.f.f.f.f.f.f.f.f.f.5.f.",
"f.f.f.f.f.f.f.f.f.f.f.[ 1 1 g h F 3 p f.f.f.f.f.f.f.f.f.f.f.f.5.",
"f.f.f.f.f.f.f.f.f.f.t.1 0 4 d F B d u 9.f.f.f.f.f.f.f.f.f.f.f.f.",
"f.f.f.f.f.f.f.f.f.f.Q w 0 $ r F w 1 1 i 7.f.f.f.f.f.f.f.f.f.f.f.",
"f.f.f.f.f.f.f.f.f.f.h h 0 T ..l d d w 1 u t.f.f.f.f.f.f.f.f.f.f.",
"f.f.f.f.f.f.f.f.f.f.h h h E O.h h g h 0 1 2 f.f.f.f.f.f.f.f.f.f.",
"f.f.f.f.f.f.f.f.f.f.h h h R O.@ h h h w 1 1 _ f.f.f.f.f.f.f.f.f.",
"f.f.f.f.f.f.f.f.f.p.h h h V & X h h j h 5 1 1 f.f.f.f.f.f.f.f.f.",
"f.f.f.f.f.f.5.f.f.1 g h v S % X O j h h h 3 1 1 e.f.f.f.f.f.f.f.",
"f.f.f.f.f.f.5.f.5.1 1 k N > X X o < h h h 3 1 1 2 f.f.f.f.f.f.f.",
"f.f.f.f.f.f.5.f.5.1 1 e M g O X o o 7 f w 1 1 ~ ^ f.f.f.f.f.f.f.",
"f.f.f.f.f.f.f.f.5.| 1 8 t 5 + X X # a 1 1 1 | f.f.f.f.f.f.f.f.f.",
"f.f.f.f.f.f.f.f.f.f.9.| [ ' ;.6.6.;.[ [ o.e.f.f.f.f.f.f.f.f.f.f.",
"f.f.f.f.f.f.f.f.f.f.f.f.' { 8.f.f.f.+.{ $.f.f.f.f.f.f.f.f.f.f.f.",
"f.f.f.f.f.f.f.f.f.f.f.f.f.f.f.f.f.5.f.5.f.f.f.f.f.f.f.f.f.f.f.f.",
"f.f.f.f.f.f.f.f.f.f.f.f.f.f.f.f.f.f.5.f.f.f.f.f.f.f.f.f.f.f.f.f."
};
