/* XPM */
static char *result[] = {
/* columns rows colors chars-per-pixel */
"32 32 183 2 ",
"   c black",
".  c #010000",
"X  c #020001",
"o  c #020202",
"O  c #040001",
"+  c #110005",
"@  c #120005",
"#  c #111111",
"$  c #1B1B1B",
"%  c #1D1B1B",
"&  c gray11",
"*  c #1E1C1C",
"=  c #27000A",
"-  c #2A000B",
";  c #22191C",
":  c #29181C",
">  c #3D131E",
",  c #3A141E",
"<  c #3D2622",
"1  c #3C3C3C",
"2  c #480014",
"3  c #51081C",
"4  c #41121F",
"5  c #41161F",
"6  c #460520",
"7  c #4F0524",
"8  c #5A0224",
"9  c #5C0026",
"0  c #5D0026",
"q  c #5F0026",
"w  c #5D0228",
"e  c #5F082C",
"r  c #501824",
"t  c #561926",
"y  c #610026",
"u  c #620026",
"i  c #670026",
"p  c #6C0521",
"a  c #6A0026",
"s  c #6B0026",
"d  c #6D0026",
"f  c #710026",
"g  c #730026",
"h  c #760026",
"j  c #770026",
"k  c #7D062C",
"l  c #6D152A",
"z  c #610E31",
"x  c #412822",
"c  c #572526",
"v  c #75212C",
"b  c #5C2E42",
"n  c #712E42",
"m  c #732C4D",
"M  c #7B384A",
"N  c #752F50",
"B  c #794A5E",
"V  c #7D5264",
"C  c #7C7C7C",
"Z  c #830027",
"A  c #850225",
"S  c #850027",
"D  c #860027",
"F  c #870027",
"G  c #8A0126",
"H  c #8B0027",
"J  c #8D0126",
"K  c #8D0127",
"L  c #8F0026",
"P  c #8E0027",
"I  c #900027",
"U  c #910027",
"Y  c #910D29",
"T  c #91082D",
"R  c #900E31",
"E  c #8F1838",
"W  c #8F1E3C",
"Q  c #961332",
"!  c #9D1834",
"~  c #90222D",
"^  c #84332F",
"/  c #8B3430",
"(  c #903C31",
")  c #903E31",
"_  c #8F4032",
"`  c #8F493B",
"'  c #904232",
"]  c #904434",
"[  c #904435",
"{  c #904637",
"}  c #E2294F",
"|  c #E3294F",
" . c #F82B56",
".. c #FE2B57",
"X. c #FC2C57",
"o. c #FF2C58",
"O. c #8E4F41",
"+. c #8F5245",
"@. c #92445A",
"#. c #906056",
"$. c #874460",
"%. c #8B4A65",
"&. c #955264",
"*. c #936C63",
"=. c #876472",
"-. c #8C6273",
";. c #876B76",
":. c #937476",
">. c #C2635F",
",. c #C46661",
"<. c #C48866",
"1. c #977F89",
"2. c #A38E8A",
"3. c #A4908C",
"4. c #A6938F",
"5. c #8A97A2",
"6. c #9998B8",
"7. c #B995A6",
"8. c #99AAB6",
"9. c #9AACB8",
"0. c gray68",
"q. c #B2A6A3",
"w. c #B8A5AC",
"e. c #BCADB1",
"r. c #AFB1B9",
"t. c #B1B1B1",
"y. c #B2B2B2",
"u. c gray70",
"i. c #B2B3B7",
"p. c #B4B4B4",
"a. c #BCB4B3",
"s. c #BDB5B9",
"d. c gray72",
"f. c #C78093",
"g. c #C88093",
"h. c #C2B5B9",
"j. c #C2BBBA",
"k. c #C2BBBE",
"l. c #C6BBBE",
"z. c #F2C595",
"x. c #F8CD9B",
"c. c #A1A8C4",
"v. c #C0C0C0",
"b. c #C5C5C5",
"n. c #C3C0CE",
"m. c #C8C8C8",
"M. c #CBCBCB",
"N. c gray80",
"B. c #CECECE",
"V. c #D2CFCE",
"C. c #C2C2D4",
"Z. c #C8CDDE",
"A. c #C9CEDE",
"S. c #D3CFD1",
"D. c LightGray",
"F. c #D5D3D4",
"G. c gray83",
"H. c #CBD0E0",
"J. c #CDD2E1",
"K. c #CED3E2",
"L. c #D4D8E5",
"P. c #D5D8E6",
"I. c #D7DAE7",
"U. c #CDD6FE",
"Y. c #E3E1E2",
"T. c #E3E4E4",
"R. c #E4E4E4",
"E. c #E4E6EE",
"W. c #E4E6EF",
"Q. c #E8E7E8",
"!. c #E9E8E8",
"~. c #E9E9E9",
"^. c #EAEAEA",
"/. c #F2F1F2",
"(. c gray95",
"). c #F4F5F8",
"_. c #F9F8F9",
"`. c #F9F9F9",
"'. c gray99",
"]. c #FDFCFD",
"[. c #FDFDFD",
"{. c #FEFDFD",
"}. c white",
/* pixels */
"}.}.}.}.}.}.}.}.}.}.}.}.}.}.}.}.}.}.}.}.}.}.}.}.}.}.}.}.}.}.}.}.",
"}.}.}.}.}.}.}.}.}.}.}.}.}.}.}.}.}.}.}.}.}.}.9.}.}.}.}.}.}.}.}.}.",
"}.}.}.}.}.}.}.}.}.}.}.}.}.}.}.].].{.}.}.}.8.}.9.}.}.}.}.}.}.}.}.",
"}.}.}.}.}.}.}.}.}.}.}.}.}./.Q.w 9 y d U U U 5.}.}.}.}.}.}.}.}.}.",
"}.}.}.}.}.}.}.B.M.M.B.D.G.-.$.%.s U U U U U U h.}.}.}.}.}.}.}.}.",
"}.}.}.'.v.v.v.'.E.E.E.E.W.7.f.g.U L 2 2 2 2 U U }.}.}.}.}.}.}.}.",
"}.M.M.B.).L.P.I.Z.Z.C.N m k U U U =         - U &.}.}.}.}.}.}.}.",
"^.}.K.J.H.Z.Z.Z.Z.Z.F.9 9 Z U U +             @ E }.}.}.}.}.}.}.",
"Z.A.Z.Z.Z.Z.Z.T.[.`.w 9 j U U O   o # # # #   X W }.}.}.}.}.}.}.",
"Z.Z.Z.Z.Z.i.U.}.}._.9 9 h U U X   # t o.t # X...W }.}.}.}.}.}.}.",
"n.Z.Z.Z.r.}.U.}.U.9 9 9 h U U . o # r  .r # } | E }.}.}.}.}.}.}.",
"' w.w.r.}.}.U.}.6.9 9 9 f I U - # # # # # # # # R }.}.}.}.}.}.}.",
"4.3.' 3.q.}.}.}.9 9 9 9 9 D U U # # # # # # # 3 T }.}.}.}.}.}.}.",
"}.}.j.a.{ #.V.}.s.9 9 9 9 i P U p # # # # # 6 U l.}.}.}.}.}.}.}.",
"}.}.}.}.(.2.` O.{.Y.S.9 9 9 y U U A G J G 8 9 Y.}.}.}.}.}.}.}.}.",
"U.}.}.}.}.}.}.+.] { }.}.1.9 9 0 I 9 9 9 9 9 _.}.}.}.}.}.}.}.}.}.",
"}.U.}.}.}.}.}.}.}.] ] *.}.B 9 I U H 9 9 s.}.}.}.}.}.}.}.}.}.}.U.",
"U.}.}.}.}.}.}.}.}.}.!.` [ l Q ! ! F a h 9 Q.}.}.}.}.}.}.}.}.}.}.",
"}.}.}.}.}.}.}.}.}.}.}._.:.^ z.x.x.9 7 h g e.}.}.}.}.}.}.}.}.}.}.",
"}.}.}.}.}.}.}.}.}.}.1.=.9 f >.,.<.v c h U U }.}.}.}.}.}.}.}.}.}.",
"}.}.}.}.}.}.}.V B B 9 9 f I U U < x _ / Y U B }.}.}.}.}.}.}.}.}.",
"}.}.}.}.k.e z 9 9 9 9 9 h U U : $ $ 5 ~ ) ( 9 }.}.}.}.}.}.}.}.}.",
"}.}.}.}.}.1.9 9 9 9 9 s U U U % $ $ > U U U 0 }.}.}.}.}.}.}.}.}.",
"}.}.}.}.}.1.9 9 9 9 u U U U : $ $ $ > U U U 0 }.}.}.}.}.}.}.}.}.",
"}.}.}.}.}.}.V 9 9 9 U U K , $ $ $ $ 4 U U y 9 }.}.U.}.}.}.}.}.}.",
"}.}.}.}.}.}.}.V B B @.M $ $ $ $ $ ; I D S q B U.}.U.}.}.}.}.}.}.",
"}.}.}.}.}.}.}.}.}.}.}.M.1 1 & $ $ * n b ;.1.}.U.}.U.}.}.}.}.}.}.",
"}.}.}.}.}.}.}.}.}.}.}.N.C C y.d.d.y.C C N.}.}.U.}.}.}.}.}.}.}.}.",
"}.}.}.}.}.}.}.}.}.}.}.m.u.t.~.}.}.~.t.u.m.}.}.}.}.}.}.}.}.}.}.}.",
"}.}.}.}.}.}.}.}.}.}.}.b.p.c.}.}.}.R.p.0.}.}.}.}.}.}.}.}.}.}.}.}.",
"}.}.}.}.}.}.}.}.}.}.}.}.U.}.U.}.}.}.}.}.}.}.}.}.}.}.}.}.}.}.}.}.",
"}.}.}.}.}.}.}.}.}.}.}.}.}.U.}.}.}.}.}.}.}.}.}.}.}.}.}.}.}.}.}.}."
};
