/* XPM */
static char *result[] = {
/* columns rows colors chars-per-pixel */
"32 32 175 2 ",
"   c black",
".  c #010000",
"X  c #020001",
"o  c gray1",
"O  c #040001",
"+  c #080002",
"@  c #0E0004",
"#  c gray3",
"$  c #110005",
"%  c #120005",
"&  c #1F0F13",
"*  c #111111",
"=  c #151012",
"-  c #1B1B1B",
";  c #1C1B1B",
":  c #1D1B1B",
">  c gray11",
",  c #2E0D16",
"<  c #21181C",
"1  c #22191C",
"2  c #36151E",
"3  c #3D131E",
"4  c #3A141E",
"5  c #370F20",
"6  c #252525",
"7  c #3D2622",
"8  c #51081C",
"9  c #67001C",
"0  c #5A0025",
"q  c #5C0026",
"w  c #5D0026",
"e  c #5E0026",
"r  c #5F0026",
"t  c #580D21",
"y  c #5D0228",
"u  c #5D0328",
"i  c #5E0429",
"p  c #5F072B",
"a  c #5F082C",
"s  c #541627",
"d  c #610026",
"f  c #620026",
"g  c #670026",
"h  c #680026",
"j  c #6A0026",
"k  c #6D0026",
"l  c #630B22",
"z  c #760026",
"x  c #770026",
"c  c #7C0027",
"v  c #610E31",
"b  c #641837",
"n  c #651B3A",
"m  c #7C2E2E",
"M  c #773F4E",
"N  c #794A5E",
"B  c #755C67",
"V  c #830023",
"C  c #820224",
"Z  c #820027",
"A  c #830027",
"S  c #830326",
"D  c #860027",
"F  c #870027",
"G  c #8B0027",
"H  c #8E0026",
"J  c #8F0026",
"K  c #8E0027",
"L  c #8F0027",
"P  c #890B2D",
"I  c #900027",
"U  c #910027",
"Y  c #910229",
"T  c #910329",
"R  c #910828",
"E  c #91082D",
"W  c #9B182A",
"Q  c #900E31",
"!  c #8F1838",
"~  c #8F1E3C",
"^  c #8F1F3D",
"/  c #9B1332",
"(  c #9D1834",
")  c #90202C",
"_  c #902F2F",
"`  c #8A3A31",
"'  c #903630",
"]  c #894031",
"[  c #8F493B",
"{  c #904232",
"}  c #904434",
"|  c #8E4F41",
" . c #8F5245",
".. c #8E5246",
"X. c #92445A",
"o. c #944A5E",
"O. c #855653",
"+. c #8F5E53",
"@. c #88595A",
"#. c #91665D",
"$. c #B3725A",
"%. c #856063",
"&. c #926860",
"*. c #936C63",
"=. c #997D77",
"-. c #C46661",
";. c #C46761",
":. c #DFE052",
">. c #ECE540",
",. c #E4E54F",
"<. c #ECEE49",
"1. c #F2F446",
"2. c #F6F844",
"3. c #F7F944",
"4. c #F8FA42",
"5. c #CACB68",
"6. c #C4C671",
"7. c #8B7C8C",
"8. c #977F89",
"9. c #A47F8A",
"0. c #978089",
"q. c #A4908C",
"w. c #A39299",
"e. c #BFBF83",
"r. c #BEBE90",
"t. c #BEBE93",
"y. c #8C9BA7",
"u. c #AA9BA1",
"i. c #99A9B6",
"p. c #9AACB8",
"a. c gray68",
"s. c #AFB1BB",
"d. c #B4B4B4",
"f. c #BDB5B9",
"g. c #D49E80",
"h. c #C2BBBE",
"j. c #C6BBBE",
"k. c #F8CD9B",
"l. c #A1A8C4",
"z. c #C2BDC9",
"x. c #BCC4E7",
"c. c #C2C3C4",
"v. c #C5C5C5",
"b. c #CDCDC0",
"n. c #CBC5C8",
"m. c #CDC5C8",
"M. c #CDC9C8",
"N. c #CFC8CA",
"B. c #CFCCCB",
"V. c #D0CCCE",
"C. c #C9CEDC",
"Z. c #C8CDDE",
"A. c #CED3E2",
"S. c #D2D6E4",
"D. c #C2CBF1",
"F. c #CCD5FC",
"G. c #CDD6FE",
"H. c #E2E0E1",
"J. c #E3E1E2",
"K. c #E3E2E2",
"L. c gray89",
"P. c #E6E5E5",
"I. c #E9E8E8",
"U. c #E9E9E9",
"Y. c #EAEAE8",
"T. c gray95",
"R. c #F8F7F8",
"E. c #F9F8F9",
"W. c #F9F9F9",
"Q. c gray99",
"!. c #FDFCFD",
"~. c #FDFDFD",
"^. c #FEFDFD",
"/. c #FEFEFD",
"(. c white",
/* pixels */
"(.(.(.(.(.(.(.(.(.(.(.(.(.(.(.(.(.(.(.(.(.(.(.(.(.(.(.(.(.(.(.(.",
"(.(.(.(.(.(.(.(.(.(.(.(.(.(.(.(.(.(.(.(.(.(.p.(.(.(.(.(.(.(.(.(.",
"(.(.(.(.(.(.(.(.(.(.(.(.(.(.(.(.(.(.(.(.(.p.(.p.(.(.(.(.(.(.(.(.",
"(.(.(.(.(.(.(.(.(.(.(.(.(.(.(.(.(.(.(.(.(.(.p.(.(.(.(.(.(.(.(.(.",
"(.(.(.(.(.(.(.(.(.(.(.(.(.(.(.f.f.h.n.N.m.j.(.(.(.(.(.(.(.(.(.(.",
"(.(.(.(.(.(.(.(.(.(.(.(.(.u.8.q q z c U U U 9.(.(.(.(.(.(.(.(.(.",
"(.(.(.(.(.(.(.(.(.(.(.(.u.p q Z Z U U U U U U o.(.(.(.(.(.(.(.(.",
"(.(.(.(.(.(.(.(.(.(.(.h.i q F U U V + O + @ I Y (.(.(.(.(.(.(.(.",
"(.(.(.(.(.(.G.(.(.(.J.q q Z U U J .         X U ^ (.(.(.(.(.(.(.",
"(.(.(.(.(.(.G.(.(.(.H.q q Z U J               X ~ (.(.(.(.(.(.(.",
"(.(.(.(.(.(.G.(.G.^.q q z U U .   o * = * * $ % ! (.(.(.(.(.(.(.",
"(.(.(.(.(.(.G.(.G.f.q q z U U     * , U , * U U Q (.(.(.(.(.(.(.",
"(.(.(.(.(.(.(.(.G.q q q z U U   # * & 8 & * 8 8 E (.(.(.(.(.(.(.",
"(.(.(.(.(.(.e.5.N q q q f D U 9 * * * * * * * * Q (.(.(.(.(.(.(.",
"(.(.(.(.b.t.T.Y.y q q q q A U U * * * * * * * C W <.t.(.(.(.(.(.",
"G.(.~.3.4.r.(.(.!.q q q q q G U H * * * * * 0 T ^.(.(.(.:.~.(.(.",
"(.2.1.(.(.(.(.(.~.~.H.q q q q I U U U U U f u (.(.(.(.(.(.1.1.F.",
"x.:.(.(.(.(.(.(... .| T.0.q q f U d q q v b ^.(.(.(.(.(.(.(./.,.",
"6.(.(.(.(.(.(.(.(.(.&.+.=.M j U U K w f w.(.(.(.(.(.(.(.(.(.(.(.",
"(.(.(.(.(.(.(.(.(.(.(.P.@.$.;.-.U z f z f R.(.(.(.(.(.(.(.(.(.(.",
"(.(.(.(.(.(.(.(.(.(.(.V.n g.k.k._ m 5 z D X.(.(.(.(.(.(.(.(.(.(.",
"(.(.(.(.(.(.(.(.(.(.y.v q P / ( R { ] ) U U ^.(.(.(.(.(.(.(.(.(.",
"(.(.(.(.(.(.(.(.(.i.y q x U U U L ; 7 { { R !.(.(.(.(.(.(.(.(.(.",
"(.(.(.(.(.(.(.(.(.E.q q z U U U - - 3 U _ { W.~.(.(.(.(.(.(.(.(.",
"(.(.(.(.(.(.(.(.J.q q k U U U S - - 4 U U ' ` } I.D.(.(.(.(.(.(.",
"(.(.(.(.(.(.(.h.q q r U U U U - - - 2 U U A q %.&.O.B.W.(.(.(.(.",
"(.(.(.(.(.(.(.a q q e U U U t - - : l U U e q G.Q.7.#.=.q.(.(.(.",
"(.(.(.(.(.(.(.h.f.q q h c s > - - 1 D g h q q G.(.(.P.M.[ *.*.(.",
"(.(.(.(.(.(.(.(.(.H.q q w B 6 - - < r q q q H.(.(.(.(.(.I.K.>.,.",
"(.(.(.(.(.(.(.(.(.(.^.v.d.l.~.Q.Q.L.d.a.(.^.(.(.(.(.(.(.:.2.C.z.",
"(.(.(.(.(.(.(.(.(.(.(.(.G.(.G.(.(.(.(.(.(.(.~.~.(.(.(.s.Z.Z.Z.Z.",
"(.(.(.(.(.(.(.(.(.(.(.(.(.G.(.(.(.(.(.(.(.Y.:.:.U.c.Z.Z.Z.A.A.S."
};
