/* XPM */
static char *result[] = {
/* columns rows colors chars-per-pixel */
"32 32 174 2 ",
"   c black",
".  c #010000",
"X  c #020001",
"o  c #020202",
"O  c #040101",
"+  c gray2",
"@  c #111111",
"#  c #1B1B1B",
"$  c #1C1B1B",
"%  c #1D1B1B",
"&  c #1F1A1B",
"*  c #1F191C",
"=  c #201D1D",
"-  c #261F1D",
";  c #29201E",
":  c gray13",
">  c #26272A",
",  c #480014",
"<  c #41161F",
"1  c #420B22",
"2  c #530223",
"3  c #5C0026",
"4  c #5D0026",
"5  c #5F0026",
"6  c #5F0427",
"7  c #5D0228",
"8  c #4D1E23",
"9  c #501824",
"0  c #5B1030",
"q  c #610026",
"w  c #620026",
"e  c #670026",
"r  c #6C0521",
"t  c #6B0026",
"y  c #670F27",
"u  c #680F29",
"i  c #760026",
"p  c #770026",
"a  c #720724",
"s  c #7A0027",
"d  c #7C0027",
"f  c #7C0E29",
"g  c #691029",
"h  c #6B1329",
"j  c #610E31",
"k  c #74202C",
"l  c #75202C",
"z  c #76212C",
"x  c #732C4D",
"c  c #6F334B",
"v  c #752F50",
"b  c #744055",
"n  c #764459",
"m  c #6A545D",
"M  c #810224",
"N  c #800027",
"B  c #820027",
"V  c #830027",
"C  c #840027",
"Z  c #8C0027",
"A  c #8F0027",
"S  c #8B0728",
"D  c #900027",
"F  c #910027",
"G  c #910127",
"H  c #910227",
"J  c #920128",
"K  c #910229",
"L  c #910828",
"P  c #91082D",
"I  c #91122A",
"U  c #91132A",
"Y  c #911C2C",
"T  c #900E31",
"R  c #961338",
"E  c #96183C",
"W  c #97183C",
"Q  c #90212C",
"!  c #90282E",
"~  c #902F2F",
"^  c #83322F",
"/  c #84332F",
"(  c #90302F",
")  c #873934",
"_  c #8A3A31",
"`  c #8A3B31",
"'  c #8B3C31",
"]  c #894031",
"[  c #904232",
"{  c #914434",
"}  c #914435",
"|  c #904637",
" . c #934A3C",
".. c #90304A",
"X. c #BA2443",
"o. c #CC2649",
"O. c #FD2C58",
"+. c #FE2C58",
"@. c #FF2C58",
"#. c #8F5346",
"$. c #A87B67",
"%. c #DA9179",
"&. c #DD967C",
"*. c #DCA87F",
"=. c #7E6B89",
"-. c #977F89",
";. c #A37C87",
":. c #A47F8A",
">. c #C06D84",
",. c #99838C",
"<. c #8E919E",
"1. c #B2969A",
"2. c #99A9B6",
"3. c #9AACB8",
"4. c #AFAAAC",
"5. c gray68",
"6. c #B1AFB0",
"7. c #B7ADB1",
"8. c #B1B1B1",
"9. c #B2B0B0",
"0. c #B4B4B4",
"q. c #BCB4B3",
"w. c #BDB5B9",
"e. c #BFBDBE",
"r. c #CA8396",
"t. c #C2B5B9",
"y. c #F8CD9B",
"u. c #A1A8C4",
"i. c #DFB5C0",
"p. c #C0C0C0",
"a. c #C3C3C3",
"s. c #C5C5C5",
"d. c #C3C0CE",
"f. c #CBCBCB",
"g. c #CECECE",
"h. c #C2C2D4",
"j. c #C9CBDC",
"k. c #C8CDDE",
"l. c #C9CEDF",
"z. c #CFD2DD",
"x. c LightGray",
"c. c #D7D7D7",
"v. c #CBD0E0",
"b. c #CED1E1",
"n. c #CED2E2",
"m. c #CED3E2",
"M. c #D3D7E5",
"N. c #D7DAE7",
"B. c #CDD6FE",
"V. c #E2E0E1",
"C. c #E3E1E2",
"Z. c #E2E2E2",
"A. c #E4E4E4",
"S. c #E5E4E4",
"D. c #E6E4E5",
"F. c #E4E6EE",
"G. c #E4E6EF",
"H. c #E8E7E8",
"J. c #E9E7E8",
"K. c #E9E8E8",
"L. c #F2E0E5",
"P. c #F2F1F2",
"I. c #F4F5F8",
"U. c #F8F8F8",
"Y. c #F9F8F9",
"T. c #F8F9FB",
"R. c #F9F9FB",
"E. c #F9FAFB",
"W. c #FAFAFC",
"Q. c #FDFCFD",
"!. c #FDFDFD",
"~. c #FEFDFD",
"^. c #FEFEFE",
"/. c white",
/* pixels */
"/./././././././././././././././././././././././././././././././.",
"/./././././././.| !.^././.f././././././././.3./././././././././.",
"/./././././././.| { k.k.F./././.!.^./././.3./.3././././././././.",
"/././././././././.#.d.k.k.k.k.T.R.W.g.U.P.J.3./././././././././.",
"/./././././././././. .k.k.k.k.k.k.v.I./.>.F t./././././././././.",
"/./././././././././.} 1.k.k.k.k.k.k.n.G.E.r.F :././././././././.",
"/./././././././././.q.) x v h.k.k.k.k.k.M.N.i.F /./././././././.",
"/./././././././././.K.[ l N R W E > k.k.k.k.m.L.../././././././.",
"/./././././.B./././.C.h z B F F X       <.k.k.l.S./././././././.",
"/./././././.B././.Q.3 h [ U F X   o @ @ @ @ O j.b.f././././././.",
"/./././././.B./.B.V.3 3 z I F .   @ 9 @.9 @ O.+.R z.p./././././.",
"/./././././.B./.B.3 3 3 z Y F   + @ < o.< @ X.X.T /.a.c././././.",
"/./././././././.=.3 3 3 g ` H , @ @ @ @ @ @ @ @ P /././././././.",
"/./././././././.3 3 3 3 3 / ( F @ @ @ @ @ @ @ r T /././././././.",
"/./././././././.C.3 3 3 3 6 ' F M @ @ @ @ @ 2 K J./././././././.",
"B././././././././.Q.V.3 3 3 _ G F D F F F w 3 Q././././././././.",
"/.B././././././././././.-.3 _ [ D 3 3 3 3 7 Q././././././././.B.",
"B././././././././././././.n q [ L Z 3 4 7./././././././././././.",
"/./././././././././././.D.c N ~ [ N e i 4 P././././././././././.",
"/././././././././././.D.b 3 3 p [ k 1 i d ;././././././././././.",
"/./././././././././.P.c 3 s V B U *.$.i F F /./././././././././.",
"/././././././././.~.0 3 i F F F J y.&.D F F ~./././././././././.",
"/././././././././.2.3 3 p F F F = y.%.F F F Q./././././././././.",
"/./././././././.Q.3 3 t F F F A # ; ~ F F F Y./././././././././.",
"/././././././.H.7 3 q F F F F $ # - ] Q F Z 3 /./.B././././././.",
"/././././././.j 3 3 5 F F F a # # # 8 ! H 5 3 B./.B././././././.",
"/././././././.,.-.3 4 i C y % # # & S ^ f 4 3 B./.B././././././.",
"/././././././././.w.3 3 w m : # # * e z u 3 w.B././././././././.",
"/./././././././././.H.e.6.8.x.Z.Z.x.4.9.e.H././././././././././.",
"/././././././././././.s.0.u./././.A.0.5././././././././././././.",
"/./././././././././././.B./.B./././././././././././././././././.",
"/././././././././././././.B././././././././././././././././././."
};
