/* XPM */
static char *_b4524b6b432476efbf99fac0be100dbdG4rKLT1r6qiEbaA[] = {
/* columns rows colors chars-per-pixel */
"32 32 134 2 ",
"   c #010000",
".  c gray2",
"X  c #0E0004",
"o  c #110005",
"O  c #1F0008",
"+  c #111111",
"@  c #1D1614",
"#  c #1B1B1B",
"$  c #1F1A1B",
"%  c #1F191C",
"&  c #210009",
"*  c #27000A",
"=  c #3D131E",
"-  c #3A141E",
";  c #3A211C",
":  c #480014",
">  c #41161F",
",  c #43241E",
"<  c #530223",
"1  c #5C0026",
"2  c #5D0228",
"3  c #411D22",
"4  c #501824",
"5  c #5B1030",
"6  c #620026",
"7  c #670026",
"8  c #6C0521",
"9  c #690026",
"0  c #730026",
"q  c #770026",
"w  c #7A0027",
"e  c #6B1329",
"r  c #761A2B",
"t  c #610E31",
"y  c #651B3A",
"u  c #412822",
"i  c #4F2921",
"p  c #77222C",
"a  c #6B3428",
"s  c #6E372B",
"d  c #73372A",
"f  c #6F334B",
"g  c #744055",
"h  c #764459",
"j  c #800027",
"k  c #850027",
"l  c #830427",
"z  c #890025",
"x  c #8C0027",
"c  c #900027",
"v  c #910027",
"b  c #910229",
"n  c #910628",
"m  c #91132A",
"M  c #911A2B",
"N  c #900E31",
"B  c #8F1838",
"V  c #8F1E3C",
"C  c #97183C",
"Z  c #91212D",
"A  c #86332F",
"S  c #85342F",
"D  c #893F30",
"F  c #894031",
"G  c #8E4132",
"H  c #904232",
"J  c #924637",
"K  c #934A3C",
"L  c #BA2443",
"P  c #CC2649",
"I  c #FF2C58",
"U  c #954F42",
"Y  c #9A6055",
"T  c #9C6057",
"R  c #7E6B89",
"E  c #977F89",
"W  c #A37C87",
"Q  c #A47F8A",
"!  c #99838C",
"~  c #A38E8A",
"^  c #B2969A",
"/  c #99A9B6",
"(  c #9AACB8",
")  c #AFAAAC",
"_  c gray68",
"`  c #B1AFB0",
"'  c #B7ADB1",
"]  c #B4B4B4",
"[  c #BCB4B3",
"{  c #B3B4B8",
"}  c #B1B5BF",
"|  c #BDB1BB",
" . c #BDB5B9",
".. c #BABBBE",
"X. c #BFBDBE",
"o. c #D9AF85",
"O. c #DDB78B",
"+. c #DEB88C",
"@. c #C7A098",
"#. c #ECB58E",
"$. c #C2B5B9",
"%. c #C2BBBA",
"&. c #C2BBBE",
"*. c #F5CB99",
"=. c #F8CD9B",
"-. c #A1A8C4",
";. c #C5BFC2",
":. c #BCC1CF",
">. c #C5C5C5",
",. c #C6C7C8",
"<. c #CBCBCB",
"1. c #D0CCCE",
"2. c #C1C6D5",
"3. c #C5C9DA",
"4. c #C6CBDC",
"5. c #C8CDDE",
"6. c #C9CEDE",
"7. c LightGray",
"8. c gray85",
"9. c #CDD2E1",
"0. c #CDD6FE",
"q. c #DFE0E5",
"w. c #E2E0E1",
"e. c #E4E4E4",
"r. c gray90",
"t. c #E8E7E8",
"y. c #EAEAEA",
"u. c #E7EAF1",
"i. c #F2F1F2",
"p. c #F8F7F8",
"a. c #F8F8F8",
"s. c #FCFCFD",
"d. c #FEFDFD",
"f. c white",
/* pixels */
"f.f.f.f.f.f.f.f.f.f.f.f.f.f.f.f.f.f.f.f.f.f.f.f.f.f.f.f.f.f.f.f.",
"f.f.f.f.f.f.f.f.f.f.f.f.f.f.f.f.f.f.f.f.f.f.( f.f.f.f.f.f.f.f.f.",
"f.f.f.f.f.f.f.f.f.f.f.f.f.f.f.f.f.f.f.f.f.( f.( f.%.@.<.f.f.f.f.",
"f.f.f.f.f.f.f.f.f.f.f.f.f.f.f.w.w.t.i.p.i.t.( f.f.[ @.f.8.f.f.f.",
"f.f.f.f.f.f.f.f.f.f.f.f.f.<.&.1 1 9 0 v v v $.f.i.J ^ u.f.f.f.f.",
"f.f.f.f.f.f.f.f.f.f.f.f.;.y 1 w q b v v v v v Q ~ T 5.5.f.f.f.f.",
"f.f.f.f.f.f.f.f.f.f.f.1.y 1 j v v z & O & * v v K | 5.5.f.<.f.f.",
"f.f.f.f.f.f.f.f.f.f.t.t 1 j v v v X         o D U 5.5.3.9.f.f.f.",
"f.f.f.f.f.f.0.f.f.f.w.1 1 j v b               H C 5.5.5.5.f.f.f.",
"f.f.f.f.f.f.0.f.f.f.1 1 q v v       + + + + G H V ,.5.5.5.f.f.f.",
"f.f.f.f.f.f.0.f.0.w.1 1 q v v     + 4 I 4 @ G I B f.{ 5.5.4.f.f.",
"f.f.f.f.f.f.0.f.0.1 1 1 q v v   . + > P > D a L N f.f.} 5.4.f.f.",
"f.f.f.f.f.f.f.f.R 1 1 1 9 z v : + + + + , G + + n f.f...4.5.f.-.",
"f.f.f.f.f.f.f.f.1 1 1 1 1 k v v + + + + d ; + 8 N f.f.f.2.5.e.p.",
"f.f.f.f.f.f.f.f.w.1 1 1 1 1 x v j + + i G @ < v y.f.f.f.:.5.9.y.",
"0.f.f.f.f.f.f.f.f.f.w.1 1 1 1 v v v b Z m 6 1 s.f.f.f.s.f.5.5.r.",
"f.0.f.f.f.f.f.f.f.f.f.f.E 1 1 1 v 1 e H e 1 f.f.f.f.f.f.f.3.5.q.",
"0.f.f.f.f.f.f.f.f.f.f.f.f.h 6 v v z e p ' f.f.f.f.f.f.f.f.f.5.y.",
"f.f.f.f.f.f.f.f.f.f.f.f.r.f j v b l H r 1 i.f.f.f.f.f.f.f.f.5.i.",
"f.f.f.f.f.f.f.f.f.f.f.r.g 1 1 q q p S q w W f.f.f.f.f.f.f.f.3.s.",
"f.f.f.f.f.f.f.f.f.f.i.f 1 w j k j F 3 q v v f.f.f.f.f.f.f.f.>.i.",
"f.f.f.f.f.f.f.f.f.f.5 1 q v v v #.o.- v v v f.f.f.f.f.f.f.f.f.y.",
"f.f.f.f.f.f.f.f.f./ 1 1 w v v b =.+.= v v v f.f.f.f.f.f.f.f.f.r.",
"f.f.f.f.f.f.f.f.f.1 1 9 v v v H *.O.= v v v p.f.f.f.f.f.f.f.f.e.",
"f.f.f.f.f.f.f.r.2 1 6 v v v n H $ % - v v z 1 f.f.0.f.f.f.f.f.f.",
"f.f.f.f.f.f.f.t 1 1 1 v v v D s $ % > b v 1 1 0.f.0.f.f.f.f.f.f.",
"f.f.f.f.f.f.f.! E 1 1 q k M H # # $ z q w 1 1 0.f.0.f.f.f.f.f.f.",
"f.f.f.f.f.f.f.f.f. .1 1 6 A u $ # $ 9 1 1 1  .0.f.f.f.f.f.f.f.f.",
"f.f.f.f.f.f.f.f.f.f.r.X._ T 7.w.w.7.) ` X.e.f.f.f.f.f.f.f.f.f.f.",
"f.f.f.f.f.f.f.f.f.f.f.>.] -.f.f.f.r.] _ f.f.f.f.f.f.f.f.f.f.f.f.",
"f.f.f.f.f.f.f.f.f.f.f.f.0.f.0.f.f.f.f.f.f.f.f.f.f.f.f.f.f.f.f.f.",
"f.f.f.f.f.f.f.f.f.f.f.f.f.0.f.f.f.f.f.f.f.f.f.f.f.f.f.f.f.f.f.f."
};
