/* XPM */
static char *_f9aec9698954a7fbb9b118b298dbe505EOK2GwIH2LmM2Eb[] = {
/* columns rows colors chars-per-pixel */
"32 32 149 2 ",
"   c black",
".  c #060000",
"X  c gray3",
"o  c #110001",
"O  c #10070A",
"+  c gray8",
"@  c #151414",
"#  c #1B1115",
"$  c #1C1215",
"%  c #20060B",
"&  c #3A050E",
"*  c #34061A",
"=  c #330D18",
"-  c #370C18",
";  c #3A0B18",
":  c #3A211C",
">  c #57051B",
",  c #670015",
"<  c #63031C",
"1  c #700215",
"2  c #5A0020",
"3  c #5C0021",
"4  c #5D0023",
"5  c #5F0127",
"6  c #530E22",
"7  c #620021",
"8  c #670021",
"9  c #6A0021",
"0  c #6D0021",
"q  c #61062D",
"w  c #770021",
"e  c #780021",
"r  c #7D0022",
"t  c #641134",
"y  c #651437",
"u  c #7D2A2A",
"i  c #783D4D",
"p  c #765C67",
"a  c #83001F",
"s  c #84001E",
"d  c #830022",
"f  c #870022",
"g  c #880022",
"h  c #8C0022",
"j  c #8A0329",
"k  c #920022",
"l  c #930022",
"z  c #920223",
"x  c #920024",
"c  c #980624",
"v  c #920229",
"b  c #91062D",
"n  c #9C0B2E",
"m  c #9C1125",
"M  c #911A28",
"N  c #901135",
"B  c #9E1131",
"V  c #901839",
"C  c #912B2B",
"Z  c #8B372D",
"A  c #8A3E2D",
"S  c #91332C",
"D  c #D10022",
"F  c #8A472A",
"G  c #91402E",
"H  c #8F4E3F",
"J  c #914231",
"K  c #8F5144",
"L  c #93425A",
"P  c #95495E",
"I  c #865552",
"U  c #89585A",
"Y  c #905E52",
"T  c #92665D",
"R  c #B4735A",
"E  c #866063",
"W  c #936860",
"Q  c #9A7E78",
"!  c #C56761",
"~  c #C0B35B",
"^  c #EDEF47",
"/  c #E5E64E",
"(  c #F6F740",
")  c #F4F442",
"_  c #F5F742",
"`  c #F2F344",
"'  c #F7F840",
"]  c #F6F842",
"[  c #F8FA40",
"{  c #E1E251",
"}  c #F3F650",
"|  c #CBCC68",
" . c #C8C96C",
".. c #D0D162",
"X. c #C5C772",
"o. c #EAED75",
"O. c #8C7D8D",
"+. c #98808A",
"@. c #A5808B",
"#. c #A4939A",
"$. c #A6AC91",
"%. c #BEBE91",
"&. c #BFBF94",
"*. c #8D9CA8",
"=. c #AB9CA2",
"-. c #9AAAB7",
";. c #9BAEB9",
":. c #AEAFAF",
">. c gray71",
",. c #BEB6BA",
"<. c #D59F81",
"1. c #C3BCBF",
"2. c #C7BCBF",
"3. c #BFC08F",
"4. c #F8CE9C",
"5. c #C3C3A7",
"6. c #CBCCBC",
"7. c #A2A9C5",
"8. c #C3BECA",
"9. c #BDC5E8",
"0. c #C6C6C6",
"q. c #CECEC1",
"w. c #CCC6C9",
"e. c #CEC6C9",
"r. c #D0C9CB",
"t. c #D0CDCC",
"y. c #D1CDCF",
"u. c #CFD3CD",
"i. c #CACFDD",
"p. c #C9CEDF",
"a. c #D7D7D0",
"s. c #CFD4E3",
"d. c #D3D7E5",
"f. c #C3CCF1",
"g. c #CCD5FC",
"h. c #CDD6FC",
"j. c #CED7FE",
"k. c #E3E1E2",
"l. c #E4E2E3",
"z. c #E5E5E2",
"x. c #E7E6E6",
"c. c #EAE9E9",
"v. c #EBEBE9",
"b. c gray95",
"n. c #F8F8F8",
"m. c #F9F8F9",
"M. c gray99",
"N. c #FDFCFD",
"B. c white",
/* pixels */
"B.B.B.B.B.B.B.B.B.B.B.B.B.B.B.B.B.B.B.B.B.B.B.B.B.B.B.B.B.B.B.B.",
"B.B.B.B.B.B.B.B.B.;.B.B.B.B.B.B.B.B.B.B.B.B.B.B.B.B.B.B.B.B.B.B.",
"B.B.B.B.B.B.B.B.;.B.;.B.B.B.B.B.B.B.B.B.B.B.B.B.B.B.B.B.B.B.B.B.",
"B.B.B.B.B.B.B.B.B.;.B.B.B.B.B.B.B.B.B.B.B.B.B.B.B.B.B.B.B.B.B.B.",
"B.B.B.B.B.B.B.B.B.B.2.w.r.w.8.,.,.B.B.B.B.B.B.B.B.B.B.B.B.B.B.B.",
"B.B.B.B.B.B.B.B.B.@.k k k d 1 3 3 +.=.B.B.B.B.B.B.B.B.B.B.B.B.B.",
"B.B.B.B.B.B.B.B.P k l l k k k d d 3 5 =.B.B.B.B.B.B.B.B.B.B.B.B.",
"B.B.B.B.B.B.B.B.z k .       s k k g 3 5 1.B.B.B.B.B.B.B.B.B.B.B.",
"B.B.B.B.B.B.B.V k             k k k d 3 3 l.B.B.B.h.B.B.B.B.B.B.",
"B.B.B.B.B.B.B.V                 k k d 3 3 k.B.B.B.h.B.B.B.B.B.B.",
"B.B.B.B.B.B.B.N o o X X O X       k k w 3 3 B.h.B.h.B.B.B.B.B.B.",
"B.B.B.B.B.B.B.b D D X & D & X     k k w 3 3 ,.h.B.h.B.B.B.B.B.B.",
"B.B.B.B.B.B.B.v 1 1 X % 1 % X     k k w 3 3 3 $.&.B.B.B.B.B.B.B.",
"B.B.B.B.B.5...c X X X X X X X X , k f 7 3 3 3 F [ ..5.B.B.B.B.B.",
"B.B.B.B.q._ [ m s X X X X X X X k k f 2 3 3 3 3 [ [ _ q.B.B.B.B.",
"B.B.B.] [ [ [ _ k 2 X X X X X k k h 3 2 3 3 3 _ [ [ [ [ ] B.B.h.",
"h.( [ [ [ [ [ _ [ _ 7 k k k k k k 3 3 3 3 k.B.B.B.6.' ' ' [ h.B.",
"[ [ [ [ [ [ ^ / / B.t q 3 3 7 k 7 3 3 +.b.H K K B.B.B.X./ [ ] 9.",
"[ [ [ [ ` ..a.B.B.B.B.#.7 3 h l k 9 i Q Y W B.B.B.B.B.B.B. . .^ ",
"[ [ [ &.5.B.B.B.B.B.m.7 e 7 e k ! ! R U x.B.B.B.B.B.B.B.B.B.B.3.",
"[ [ 6.B.B.B.B.B.B.B.L f e * u C 4.4.<.y y.B.B.B.B.B.B.B.B.B.B.B.",
"[ l.B.B.B.B.B.B.B.M.k k M A G k B n j 3 q *.B.B.B.B.B.B.B.B.B.B.",
"[ B.B.B.B.B.B.B.B.M.k F G : + h k k k e 3 3 -.B.B.B.B.B.B.B.B.B.",
"[ M.B.B.B.B.B.B.M.B.A C l ; + + k k k w 3 3 m.B.B.B.B.B.B.B.B.B.",
"[ z.B.B.B.B.f.c.J Z S k k - + + g k k k 0 3 3 l.B.B.B.B.B.B.B.B.",
"[ [ B.B.n.t.I T E 3 f k k = + + + k k k k 3 3 3 1.B.B.B.B.B.B.B.",
"[ [ %.%.Q T O.B.h.5 7 z k < + + + > k k k 3 3 3 5 B.B.B.B.B.B.B.",
"[ [ [ [ ~ x.B.B.h.3 2 9 8 f $ + + + 6 r 9 3 3 ,.1.B.B.B.B.B.B.B.",
"[ [ [ ' [ _ 6.B.B.k.> > 3 3 # + + $ p 3 > > l.B.B.B.B.B.B.B.B.B.",
"8.p.[ ' [ [ _ z.B.B.B.B.:.>.k.B.B.B.7.>.0.B.B.B.B.B.B.B.B.B.B.B.",
"p.p.p.u.[ [ [ [ ] ] B.B.B.B.B.B.B.h.B.h.B.B.B.B.B.B.B.B.B.B.B.B.",
"d.s.d.p.p.p.o.} { / ' | m.b.v.B.B.B.h.B.B.B.B.B.B.B.B.B.B.B.B.B."
};
