/* XPM */
static char *result[] = {
/* columns rows colors chars-per-pixel */
"32 32 163 2 ",
"   c black",
".  c #010000",
"X  c #020001",
"o  c gray1",
"O  c #040001",
"+  c #080002",
"@  c #0E0004",
"#  c gray3",
"$  c #180005",
"%  c #190005",
"&  c #111111",
"*  c #171012",
"=  c #1B1B1B",
"-  c #1C1B1B",
";  c #1D1B1B",
":  c gray11",
">  c #250F13",
",  c #3D0D16",
"<  c #21181C",
"1  c #22191C",
"2  c #36151E",
"3  c #3D131E",
"4  c #3A141E",
"5  c #370F20",
"6  c #252525",
"7  c #3D2622",
"8  c #67001C",
"9  c #70081C",
"0  c #71081C",
"q  c #5A0025",
"w  c #5C0026",
"e  c #5D0026",
"r  c #5E0026",
"t  c #5F0026",
"y  c #580D21",
"u  c #5D0228",
"i  c #5D0328",
"p  c #5E0429",
"a  c #5F072B",
"s  c #5F082C",
"d  c #541627",
"f  c #610026",
"g  c #620026",
"h  c #670026",
"j  c #680026",
"k  c #6A0026",
"l  c #6D0026",
"z  c #630B22",
"x  c #760026",
"c  c #770026",
"v  c #7C0027",
"b  c #610E31",
"n  c #641837",
"m  c #651B3A",
"M  c #7C2E2E",
"N  c #773F4E",
"B  c #794A5E",
"V  c #755C67",
"C  c #830023",
"Z  c #820224",
"A  c #820027",
"S  c #830027",
"D  c #830326",
"F  c #860027",
"G  c #870027",
"H  c #8B0027",
"J  c #8E0026",
"K  c #8F0026",
"L  c #8E0027",
"P  c #8F0027",
"I  c #890B2D",
"U  c #900027",
"Y  c #910027",
"T  c #910229",
"R  c #910329",
"E  c #910828",
"W  c #91082D",
"Q  c #900E31",
"!  c #8F1838",
"~  c #8F1E3C",
"^  c #8F1F3D",
"/  c #9B1332",
"(  c #9D1834",
")  c #90202C",
"_  c #902F2F",
"`  c #8A3A31",
"'  c #903630",
"]  c #D00027",
"[  c #894031",
"{  c #8F493B",
"}  c #904232",
"|  c #904434",
" . c #8E4F41",
".. c #8F5245",
"X. c #8E5246",
"o. c #92445A",
"O. c #944A5E",
"+. c #855653",
"@. c #8F5E53",
"#. c #88595A",
"$. c #91665D",
"%. c #B3725A",
"&. c #856063",
"*. c #926860",
"=. c #936C63",
"-. c #997D77",
";. c #C46661",
":. c #C46761",
">. c #DFE052",
",. c #C4C671",
"<. c #8B7C8C",
"1. c #977F89",
"2. c #A47F8A",
"3. c #978089",
"4. c #A4908C",
"5. c #A39299",
"6. c #8C9BA7",
"7. c #AA9BA1",
"8. c #99A9B6",
"9. c #9AACB8",
"0. c gray68",
"q. c #AFB1BB",
"w. c #B4B4B4",
"e. c #BDB5B9",
"r. c #D49E80",
"t. c #C2BBBE",
"y. c #C6BBBE",
"u. c #F8CD9B",
"i. c #A1A8C4",
"p. c #BABECB",
"a. c #C1BCC9",
"s. c #C1BDCA",
"d. c #C2C3C4",
"f. c #C5C5C5",
"g. c #CBC5C8",
"h. c #CDC5C8",
"j. c #CDC9C8",
"k. c #CFC8CA",
"l. c #CFCCCB",
"z. c #D0CCCE",
"x. c #C7CBDC",
"c. c #C8CDDE",
"v. c #CED3E2",
"b. c #D2D6E4",
"n. c #C2CBF1",
"m. c #CBD4FC",
"M. c #CDD6FE",
"N. c #E2E0E1",
"B. c #E3E1E2",
"V. c gray89",
"C. c #E6E5E5",
"Z. c #E9E8E8",
"A. c #E9E9E9",
"S. c #EAEAE8",
"D. c gray95",
"F. c #F8F7F8",
"G. c #F9F8F9",
"H. c #F9F9F9",
"J. c gray99",
"K. c #FDFCFD",
"L. c #FDFDFD",
"P. c #FEFDFD",
"I. c white",
/* pixels */
"I.I.I.I.I.I.I.I.I.I.I.I.I.I.I.I.I.I.I.I.I.I.I.I.I.I.I.I.I.I.I.I.",
"I.I.I.I.I.I.I.I.I.I.I.I.I.I.I.I.I.I.I.I.I.I.9.I.I.I.I.I.I.I.I.I.",
"I.I.I.I.I.I.I.I.I.I.I.I.I.I.I.I.I.I.I.I.I.9.I.9.I.I.I.I.I.I.I.I.",
"I.I.I.I.I.I.I.I.I.I.I.I.I.I.I.I.I.I.I.I.I.I.9.I.I.I.I.I.I.I.I.I.",
"I.I.I.I.I.I.I.I.I.I.I.I.I.I.I.e.e.t.g.k.h.y.I.I.I.I.I.I.I.I.I.I.",
"I.I.I.I.I.I.I.I.I.I.I.I.I.7.1.w w x v Y Y Y 2.I.I.I.I.I.I.I.I.I.",
"I.I.I.I.I.I.I.I.I.I.I.I.7.a w A A Y Y Y Y Y Y O.I.I.I.I.I.I.I.I.",
"I.I.I.I.I.I.I.I.I.I.I.t.p w G Y Y C + O + @ U T I.I.I.I.I.I.I.I.",
"I.I.I.I.I.I.M.I.I.I.B.w w A Y Y K .         X Y ^ I.I.I.I.I.I.I.",
"I.I.I.I.I.I.M.I.I.I.N.w w A Y K               X ~ I.I.I.I.I.I.I.",
"I.I.I.I.I.I.M.I.M.P.w w x Y Y .   o & * & & $ % ! I.I.I.I.I.I.I.",
"I.I.I.I.I.I.M.I.M.e.w w x Y Y     & , ] , & ] ] Q I.I.I.I.I.I.I.",
"I.I.I.I.I.I.I.I.M.w w w x Y Y   # & > 9 > & 0 9 W I.I.I.I.I.I.I.",
"I.I.I.I.I.I.I.,.B w w w g F Y 8 & & & & & & & & Q I.I.I.I.I.I.I.",
"I.I.I.I.I.I.I.S.u w w w w S Y Y & & & & & & & Z ! I.I.I.I.I.I.I.",
"M.I.L.>.I.I.I.I.K.w w w w w H Y J & & & & & q R P.I.I.I.>.L.I.I.",
"I.m.I.I.I.I.I.I.L.L.N.w w w w U Y Y Y Y Y g i I.I.I.I.I.I.I.I.M.",
"M.>.I.I.I.I.I.I.X... .D.3.w w g Y f w w b n P.I.I.I.I.I.I.I.I.S.",
"I.I.I.I.I.I.I.I.I.I.*.@.-.N k Y Y L e g 5.I.I.I.I.I.I.I.I.I.I.I.",
"I.I.I.I.I.I.I.I.I.I.I.C.#.%.:.;.Y x g x g F.I.I.I.I.I.I.I.I.I.I.",
"I.I.I.I.I.I.I.I.I.I.I.z.m r.u.u._ M 5 x F o.I.I.I.I.I.I.I.I.I.I.",
"I.I.I.I.I.I.I.I.I.I.6.b w I / ( E } [ ) Y Y P.I.I.I.I.I.I.I.I.I.",
"I.I.I.I.I.I.I.I.I.8.u w c Y Y Y P - 7 } } E K.I.I.I.I.I.I.I.I.I.",
"I.I.I.I.I.I.I.I.I.G.w w x Y Y Y = = 3 Y _ } H.L.I.I.I.I.I.I.I.I.",
"I.I.I.I.I.I.I.I.B.w w l Y Y Y D = = 4 Y Y ' ` | Z.n.I.I.I.I.I.I.",
"I.I.I.I.I.I.I.t.w w t Y Y Y Y = = = 2 Y Y S w &.*.+.l.H.I.I.I.I.",
"I.I.I.I.I.I.I.s w w r Y Y Y y = = ; z Y Y r w M.J.<.$.-.4.I.I.I.",
"I.I.I.I.I.I.I.t.e.w w j v d : = = 1 F h j w w M.I.I.C.j.{ =.=.I.",
"I.I.I.I.I.I.I.I.I.N.w w e V 6 = = < t w w w N.I.I.I.I.I.Z.s.}  .",
"I.I.I.I.I.I.I.I.I.I.P.f.w.i.L.J.J.V.w.0.I.P.I.I.I.I.I.I.p.c.x.a.",
"I.I.I.I.I.I.I.I.I.I.I.I.M.I.M.I.I.I.I.I.I.I.I.I.I.I.I.q.c.c.c.c.",
"I.I.I.I.I.I.I.I.I.I.I.I.I.M.I.I.I.I.I.I.I.I.I.I.A.d.c.c.c.v.v.b."
};
