/* XPM */
static char *result[] = {
/* columns rows colors chars-per-pixel */
"32 32 190 2 ",
"   c black",
".  c #010000",
"X  c #020001",
"o  c gray1",
"O  c #040001",
"+  c #080002",
"@  c #0E0004",
"#  c gray3",
"$  c #180005",
"%  c #190005",
"&  c #111111",
"*  c #171012",
"=  c #1B1B1B",
"-  c #1C1B1B",
";  c #1D1B1B",
":  c gray11",
">  c #250F13",
",  c #3D0D16",
"<  c #21181C",
"1  c #22191C",
"2  c #36151E",
"3  c #3D131E",
"4  c #3A141E",
"5  c #370F20",
"6  c #252525",
"7  c #3D2622",
"8  c #67001C",
"9  c #70081C",
"0  c #71081C",
"q  c #5A0025",
"w  c #5C0026",
"e  c #5D0026",
"r  c #5E0026",
"t  c #5F0026",
"y  c #5D0226",
"u  c #580D21",
"i  c #5D0228",
"p  c #5E0429",
"a  c #5F072B",
"s  c #5F082C",
"d  c #541627",
"f  c #610026",
"g  c #620026",
"h  c #670026",
"j  c #680026",
"k  c #6A0026",
"l  c #6D0026",
"z  c #630B22",
"x  c #760026",
"c  c #770026",
"v  c #7C0027",
"b  c #610E31",
"n  c #641837",
"m  c #651B3A",
"M  c #7C2E2E",
"N  c #773F4E",
"B  c #755C67",
"V  c #830023",
"C  c #820224",
"Z  c #820027",
"A  c #830027",
"S  c #830326",
"D  c #860027",
"F  c #870027",
"G  c #8B0027",
"H  c #8E0026",
"J  c #8F0026",
"K  c #8E0027",
"L  c #8F0027",
"P  c #890B2D",
"I  c #900027",
"U  c #910027",
"Y  c #920327",
"T  c #910229",
"R  c #910828",
"E  c #970E29",
"W  c #91082D",
"Q  c #9B182A",
"!  c #900E31",
"~  c #8F1838",
"^  c #8F1E3C",
"/  c #8F1F3D",
"(  c #9B1332",
")  c #9D1834",
"_  c #90202C",
"`  c #902F2F",
"'  c #8A3A31",
"]  c #903630",
"[  c #D00027",
"{  c #89492E",
"}  c #894031",
"|  c #904232",
" . c #904434",
".. c #8E4F41",
"X. c #8F5245",
"o. c #8E5246",
"O. c #92445A",
"+. c #944A5E",
"@. c #855653",
"#. c #8F5E53",
"$. c #88595A",
"%. c #91665D",
"&. c #B3725A",
"*. c #856063",
"=. c #926860",
"-. c #997D77",
";. c #C46661",
":. c #C46761",
">. c #BFB25B",
",. c #E4E54F",
"<. c #ECEE49",
"1. c #F6F742",
"2. c #F2F346",
"3. c #F2F446",
"4. c #F4F444",
"5. c #F5F744",
"6. c #F7F842",
"7. c #F6F844",
"8. c #F7F944",
"9. c #F8FA42",
"0. c #E0E152",
"q. c #F3F651",
"w. c #C7C86C",
"e. c #CACB68",
"r. c #CFD062",
"t. c #D0D160",
"y. c #C4C671",
"u. c #E9EC74",
"i. c #8B7C8C",
"p. c #977F89",
"a. c #A47F8A",
"s. c #978089",
"d. c #A39299",
"f. c #BEBF8E",
"g. c #A5AA90",
"h. c #BDBD90",
"j. c #BEBE90",
"k. c #BEBE93",
"l. c #8C9BA7",
"z. c #AA9BA1",
"x. c #99A9B6",
"c. c #9AACB8",
"v. c gray68",
"b. c #B4B4B4",
"n. c #BDB5B9",
"m. c #D49E80",
"M. c #C2BBBE",
"N. c #C6BBBE",
"B. c #F8CD9B",
"V. c #C2C2A6",
"C. c #CACBBB",
"Z. c #A1A8C4",
"A. c #C2BDC9",
"S. c #BCC4E7",
"D. c #C5C5C5",
"F. c #CDCDC0",
"G. c #CBC5C8",
"H. c #CDC5C8",
"J. c #CFC8CA",
"K. c #CFCCCB",
"L. c #D0CCCE",
"P. c #CED2CC",
"I. c #D6D6CF",
"U. c #C9CEDC",
"Y. c #C8CDDE",
"T. c #CED3E2",
"R. c #D2D6E4",
"E. c #C2CBF1",
"W. c #CBD4FC",
"Q. c #CCD5FC",
"!. c #CDD6FE",
"~. c #E2E0E1",
"^. c #E3E1E2",
"/. c gray89",
"(. c #E4E4E1",
"). c #E5E5E2",
"_. c #E6E5E5",
"`. c #E9E8E8",
"'. c #EAEAE8",
"]. c gray95",
"[. c #F8F7F8",
"{. c #F8F8F8",
"}. c #F9F8F9",
"|. c #F9F9F9",
" X c gray99",
".X c #FDFCFD",
"XX c #FDFDFD",
"oX c #FEFDFD",
"OX c #FEFEFD",
"+X c white",
/* pixels */
"+X+X+X+X+X+X+X+X+X+X+X+X+X+X+X+X+X+X+X+X+X+X+X+X+X+X+X+X+X+X+X+X",
"+X+X+X+X+X+X+X+X+X+X+X+X+X+X+X+X+X+X+X+X+X+Xc.+X+X+X+X+X+X+X+X+X",
"+X+X+X+X+X+X+X+X+X+X+X+X+X+X+X+X+X+X+X+X+Xc.+Xc.+X+X+X+X+X+X+X+X",
"+X+X+X+X+X+X+X+X+X+X+X+X+X+X+X+X+X+X+X+X+X+Xc.+X+X+X+X+X+X+X+X+X",
"+X+X+X+X+X+X+X+X+X+X+X+X+X+X+Xn.n.M.G.J.H.N.+X+X+X+X+X+X+X+X+X+X",
"+X+X+X+X+X+X+X+X+X+X+X+X+Xz.p.w w x v U U U a.+X+X+X+X+X+X+X+X+X",
"+X+X+X+X+X+X+X+X+X+X+X+Xz.a w Z Z U U U U U U +.+X+X+X+X+X+X+X+X",
"+X+X+X+X+X+X+X+X+X+X+XM.p w F U U V + O + @ I T +X+X+X+X+X+X+X+X",
"+X+X+X+X+X+X!.+X+X+X^.w w Z U U J .         X U / +X+X+X+X+X+X+X",
"+X+X+X+X+X+X!.+X+X+X~.w w Z U J               X ^ +X+X+X+X+X+X+X",
"+X+X+X+X+X+X!.+X!.oXw w x U U .   o & * & & $ % ~ +X+X+X+X+X+X+X",
"+X+X+X+X+X+X!.+X!.n.w w x U U     & , [ , & [ [ ! +X+X+X+X+X+X+X",
"+X+X+X+X+X+X+Xk.g.w w w x U U   # & > 9 > & 0 9 W +X+X+X+X+X+X+X",
"+X+X+X+X+XV.r.9.{ w w w g D U 8 & & & & & & & & E r.V.+X+X+X+X+X",
"+X+X+X+XF.5.9.9.y w w w w A U U & & & & & & & C Q 9.5.F.+X+X+X+X",
"!.+XXX8.9.9.9.9.1.w w w w w G U H & & & & & q Y 6.9.9.9.8.XX+X+X",
"+XW.9.9.9.9.C.+XXXXX~.w w w w I U U U U U g 4.9.9.9.9.9.9.9.7.Q.",
"S.8.9.,.y.+X+X+Xo.X...].s.w w g U f w w b n oX0.,.<.9.9.9.9.9.9.",
"<.w.w.+X+X+X+X+X+X+X=.#.-.N k U U K e g d.+X+X+X+XI.t.3.9.9.9.9.",
"f.+X+X+X+X+X+X+X+X+X+X_.$.&.:.;.U x g x g [.+X+X+X+X+XV.j.9.9.9.",
"+X+X+X+X+X+X+X+X+X+X+XL.m m.B.B.` M 5 x D O.+X+X+X+X+X+X+XC.9.9.",
"+X+X+X+X+X+X+X+X+X+Xl.b w P ( ) R | } _ U U oX+X+X+X+X+X+X+X(.9.",
"+X+X+X+X+X+X+X+X+Xx.i w c U U U L - 7 | | R .X+X+X+X+X+X+X+XXX9.",
"+X+X+X+X+X+X+X+X+X}.w w x U U U = = 3 U ` | |.XX+X+X+X+X+X+XXX9.",
"+X+X+X+X+X+X+X+X^.w w l U U U S = = 4 U U ] '  .`.E.+X+X+X+X(.9.",
"+X+X+X+X+X+X+XM.w w t U U U U = = = 2 U U A w *.=.@.K.|.+X+X9.9.",
"+X+X+X+X+X+X+Xs w w r U U U u = = ; z U U r w !. Xi.%.-.h.j.9.9.",
"+X+X+X+X+X+X+XM.n.w w j v d : = = 1 D h j w w !.+X+X_.>.9.9.9.9.",
"+X+X+X+X+X+X+X+X+X~.w w e B 6 = = < t w w w ~.+X+XF.2.9.9.9.9.9.",
"+X+X+X+X+X+X+X+X+X+XoXD.b.Z.XX X X/.b.v.+XoX+X+X).9.9.9.9.9.U.A.",
"+X+X+X+X+X+X+X+X+X+X+X+X!.+X!.+X+X+X+X+X+XOX7.9.9.9.9.9.P.Y.Y.Y.",
"+X+X+X+X+X+X+X+X+X+X+X+X+X!.+X+X+X'.].{.e.9.0.0.q.u.Y.Y.Y.T.T.R."
};
