/* XPM */
static char *result[] = {
/* columns rows colors chars-per-pixel */
"32 32 175 2 ",
"   c black",
".  c #010000",
"X  c #020001",
"o  c #020202",
"O  c gray2",
"+  c #0E0004",
"@  c #110005",
"#  c #1F0008",
"$  c #111111",
"%  c #1D1614",
"&  c #1B1B1B",
"*  c #1F1A1B",
"=  c #1F191C",
"-  c #210009",
";  c #27000A",
":  c #3D131E",
">  c #3A141E",
",  c #3A211C",
"<  c #480014",
"1  c #41161F",
"2  c #43241E",
"3  c #4E0F20",
"4  c #530223",
"5  c #5C0026",
"6  c #5D0026",
"7  c #5F0026",
"8  c #5D0228",
"9  c #411D22",
"0  c #501824",
"q  c #5B1030",
"w  c #610026",
"e  c #620026",
"r  c #670026",
"t  c #6C0521",
"y  c #690026",
"u  c #6A0026",
"i  c #6B0026",
"p  c #730026",
"a  c #760026",
"s  c #770026",
"d  c #760027",
"f  c #7A0027",
"g  c #7C0027",
"h  c #6B1329",
"j  c #6D152A",
"k  c #761A2B",
"l  c #610E31",
"z  c #651B3A",
"x  c #412822",
"c  c #4F2921",
"v  c #76212C",
"b  c #77222C",
"n  c #6B3428",
"m  c #6E372B",
"M  c #73372A",
"N  c #6F334B",
"B  c #744055",
"V  c #764459",
"C  c #810224",
"Z  c #800027",
"A  c #820027",
"S  c #830027",
"D  c #840027",
"F  c #850027",
"G  c #830427",
"H  c #890025",
"J  c #8B0027",
"K  c #8C0027",
"L  c #900027",
"P  c #910027",
"I  c #910229",
"U  c #910628",
"Y  c #91082D",
"T  c #91132A",
"R  c #911A2B",
"E  c #900E31",
"W  c #8F1838",
"Q  c #8F1E3C",
"!  c #97183C",
"~  c #91212D",
"^  c #86332F",
"/  c #85342F",
"(  c #893F30",
")  c #903A31",
"_  c #903E31",
"`  c #894031",
"'  c #8F4032",
"]  c #8E4132",
"[  c #8F4232",
"{  c #904132",
"}  c #924132",
"|  c #904232",
" . c #924637",
".. c #934A3C",
"X. c #BA2443",
"o. c #CC2649",
"O. c #FE2C58",
"+. c #FF2C58",
"@. c #954F42",
"#. c #9A6055",
"$. c #9C6057",
"%. c #7E6B89",
"&. c #977F89",
"*. c #A37C87",
"=. c #A47F8A",
"-. c #99838C",
";. c #A38E8A",
":. c #B2969A",
">. c #99A9B6",
",. c #9AACB8",
"<. c #AFAAAC",
"1. c gray68",
"2. c #B1AFB0",
"3. c #B7ADB1",
"4. c #B4B4B4",
"5. c #BCB4B3",
"6. c #B3B4B8",
"7. c #B1B5BF",
"8. c #BDB1BB",
"9. c #BDB5B9",
"0. c #BABBBE",
"q. c #BFBDBE",
"w. c #D9AF85",
"e. c #DDB78B",
"r. c #DEB88C",
"t. c #C7A098",
"y. c #ECB58E",
"u. c #C2B5B9",
"i. c #C2BBBA",
"p. c #C2BBBE",
"a. c #F5CB99",
"s. c #F8CD9B",
"d. c #A1A8C4",
"f. c #C5BFC2",
"g. c #BCC1CF",
"h. c #C0C0C0",
"j. c #C5C5C5",
"k. c #C6C7C8",
"l. c #CBCBCB",
"z. c #D0CCCE",
"x. c #C1C6D5",
"c. c #C5C9DA",
"v. c #C6CBDC",
"b. c #C8CDDE",
"n. c #C9CEDE",
"m. c #D3D1D1",
"M. c LightGray",
"N. c gray85",
"B. c #CDD2E1",
"V. c #D8DCE8",
"C. c #CDD6FE",
"Z. c #DFE0E5",
"A. c #E2E0E1",
"S. c #E3E1E2",
"D. c #E2E2E2",
"F. c #E4E4E4",
"G. c gray90",
"H. c #E6E4E5",
"J. c #E8E7E8",
"K. c #E9E7E8",
"L. c #EAEAEA",
"P. c #E7EAF1",
"I. c #F2F1F2",
"U. c gray95",
"Y. c #F8F7F8",
"T. c #F8F8F8",
"R. c #F9F8F9",
"E. c #FCFCFD",
"W. c #FDFCFD",
"Q. c #FDFDFD",
"!. c #FEFDFD",
"~. c #FDFDFE",
"^. c #FEFEFE",
"/. c #FEFEFF",
"(. c white",
/* pixels */
"(.(.(.(.(.(.(.(.(.(.(.(.(.(.(.(.(.(.(.(.(.(.(.(.(.(.(.(.(.(.(.(.",
"(.(.(.(.(.(.(.(.(.,.(.(.(.(.(.(.(.(.(.(.(.(.(.(.(.(.(.(.(.(.(.(.",
"(.(.(.(.l.t.i.(.,.(.,.(.(.(.(.(.(.(.(.(.(.(.(.(.(.(.(.(.(.(.(.(.",
"(.(.(.N.(.t.5.(.(.,.K.I.Y.I.J.S.S.(.(.(.(.(.(.(.(.(.(.(.(.(.(.(.",
"(.(.(.(.P.:. .U.(.u.P P P p u 5 5 p.z.(.(.(.(.(.(.(.(.(.(.(.(.(.",
"(.(.(.~.b.b.$.;.=.P P P P P P a s 5 z f.(.(.(.(.(.(.(.(.(.(.(.(.",
"(.(.l.E.b.b.8...P P ; - # - H P P Z 5 z z.(.(.(.(.(.(.(.(.(.(.(.",
"(.(.(.B.b.b.b.@.) @         + L P P Z 5 l J.(.(.(.(.(.(.(.(.(.(.",
"(.(./.b.b.b.b.! {             X P P A 5 5 S.(.(.(.C.(.(.(.(.(.(.",
"(.Q.^.b.b.b.k.Q } ] $ $ $ $ o   X P P a 5 5 W.(.(.C.(.(.(.(.(.(.",
"(.^.b.b.b.6.(.W O.[ % 0 +.0 $   . P P a 5 5 A.C.(.C.(.(.(.(.(.(.",
"(.(.b.b.7.(.(.E X.n ( 1 o.1 $ O   P P a 5 5 5 C.(.C.(.(.(.(.(.(.",
"h.(.b.v.0.(.(.Y $ $ ] 2 $ $ $ $ < P J y 5 5 5 %.(.(.(.(.(.(.(.(.",
"U.V.b.x.(.(.(.E t $ , M $ $ $ $ P P F 5 5 5 5 5 (.(.(.(.(.(.(.(.",
"L.b.b.g.(.(.(.K.I 4 % | c $ $ C P K 7 5 5 5 5 S.(.(.(.(.(.(.(.(.",
"G.n.v.^.(.(.(.(.W.5 e T ~ P L P L 5 5 5 5 A.W.(.(.(.(.(.(.(.(.C.",
"Z.n.c.(.(.(.(.(.(.W.8 h | h 5 L 6 5 5 &.(.(.(.(.(.(.(.(.(.(.C.(.",
"L.b.(.(.(.(.(.(.(.(.(.3.v j K P P w V (.(.(.(.(.(.(.(.(.(.(.(.C.",
"U.b.(.(.(.(.(.(.(.(.I.6 k ' G P P Z N H.(.(.(.(.(.(.(.(.(.(.(.(.",
"T.b.(.(.(.(.(.(.(.(.*.g a / b a s 5 5 B H.(.(.(.(.(.(.(.(.(.(.(.",
"U.k.(.(.(.(.(.(.(.(.P P a 9 ` A A S f 5 N I.(.(.(.(.(.(.(.(.(.(.",
"L.^.(.(.(.(.(.(.(.!.P P L > w.y.P P P a 5 q !.(.(.(.(.(.(.(.(.(.",
"G.Q.(.(.(.(.(.(.(.W.P P P : r.s.P P P s 5 5 >.(.(.(.(.(.(.(.(.(.",
"F.Q.(.(.(.(.(.(.(.R.P P P : e.a.{ P P P i 5 5 W.(.(.(.(.(.(.(.(.",
"(.(.(.(.(.(.C.(.(.5 K P P > & & | U P P P w 5 8 J.(.(.(.(.(.(.(.",
"(.(.(.(.(.(.C.(.C.5 7 P P 3 & & m _ P P P 7 5 5 l (.(.(.(.(.(.(.",
"(.(.(.(.(.(.C.(.C.5 6 d a J * & & { R D a 6 5 &.-.(.(.(.(.(.(.(.",
"(.(.(.(.(.(.(.(.C.9.5 5 5 r = & & x ^ e 5 5 9.(.(.(.(.(.(.(.(.(.",
"(.(.(.(.(.(.(.(.(.(.J.q.2.<.M.D.D.m.#.2.q.J.(.(.(.(.(.(.(.(.(.(.",
"(.(.(.(.(.(.(.(.(.(.(.(.1.4.F.(.(.(.d.4.j.(.(.(.(.(.(.(.(.(.(.(.",
"(.(.(.(.(.(.(.(.(.(.(.(.(.(.(.(.(.C.(.C.(.(.(.(.(.(.(.(.(.(.(.(.",
"(.(.(.(.(.(.(.(.(.(.(.(.(.(.(.(.(.(.C.(.(.(.(.(.(.(.(.(.(.(.(.(."
};
