/* XPM */
static char *result[] = {
/* columns rows colors chars-per-pixel */
"32 32 103 2 ",
"   c #524C2E",
".  c #584E2C",
"X  c #4C4C31",
"o  c #534E30",
"O  c #575132",
"+  c #5A5433",
"@  c #5E5B3A",
"#  c #655731",
"$  c #665A34",
"%  c #6B5C34",
"&  c #645F3C",
"*  c #685F39",
"=  c #715B30",
"-  c #65603A",
";  c #6B633B",
":  c #726034",
">  c #7D6231",
",  c #72623A",
"<  c #74693E",
"1  c #796A3C",
"2  c #6E6840",
"3  c #64644F",
"4  c #7A6940",
"5  c #766F4F",
"6  c #76714F",
"7  c #767250",
"8  c #7D7D6A",
"9  c #85652F",
"0  c #856430",
"q  c #896F3B",
"w  c #95683B",
"e  c #8B723B",
"r  c #A3703D",
"t  c #B77F32",
"y  c #877643",
"u  c #897643",
"i  c #8A7946",
"p  c #877A48",
"a  c #8C7C49",
"s  c #947D45",
"d  c #937E49",
"f  c #887D53",
"g  c #C38332",
"h  c #D08B34",
"j  c #8F824D",
"k  c #978047",
"l  c #988147",
"z  c #978148",
"x  c #99854A",
"c  c #9E8B4F",
"v  c #9F8E52",
"b  c #83836E",
"n  c #8C8A6D",
"m  c #868D7B",
"M  c #8A8A79",
"N  c #6F858D",
"B  c #799CA8",
"V  c #6D99BB",
"C  c #739AB3",
"Z  c #879484",
"A  c #8B9583",
"S  c #8F9C94",
"D  c #809EAA",
"F  c #84A1B1",
"G  c #83A0BE",
"H  c #9DACB7",
"J  c #95ABBC",
"K  c #9AADBA",
"L  c #86B9D7",
"P  c #88BBD6",
"I  c #8DBFD9",
"U  c #8DC0D9",
"Y  c #BACDDE",
"T  c #8DC3E2",
"R  c #94CDE7",
"E  c #95CBE9",
"W  c #97D2E7",
"Q  c #9AD2E7",
"!  c #99D3E8",
"~  c #A4CDEE",
"^  c #B5CDEF",
"/  c #B6D0F1",
"(  c #BAD4F3",
")  c #BFD8F4",
"_  c #C2CBDD",
"`  c #C9D6E5",
"'  c #CCD5E8",
"]  c #C5DDEC",
"[  c #D6DCEF",
"{  c #C3D7F3",
"}  c #C6D9F5",
"|  c #CFDAF0",
" . c #CDD6FE",
".. c #C7E0EC",
"X. c #D6E5F8",
"o. c #DAE7F9",
"O. c #E4E7E7",
"+. c #E2E3F1",
"@. c #ECE9F1",
"#. c #F4ECF1",
"$. c #F3F4F4",
"%. c #F2F7FD",
"&. c white",
/* pixels */
"&.&.&.&.&.&.&.&.&.&.&.&.&.&.X.^ ^ X.&.&.&.&.&.&.&.&.&.&.&.&.&.&.",
"&.&.&.&.&.&.&.&.&.&.&.&.%.( E ] @.| { %.&.&.K &.&.&.&.&.&.&.&.&.",
"&.&.&.&.&.&.&.&.&.&.&.o.~ R R ] #.#.+.{ o.K &.K &.&.&.&.&.&.&.&.",
"&.&.&.&.&.&.&.&.&.%.( E Q Q Q ] #.#.#.@.| { J &.&.&.&.&.&.&.&.&.",
"&.&.&.&.&.&.&.&.o.~ R Q Q Q ! ..#.#.#.#.#.+.{ o.&.&.&.&.&.&.&.&.",
"&.&.&.&.&.&.%.( E R Q Q Q Q ! ..#.#.#.#.#.#.@.' { %.&.&.&.&.&.&.",
"&.&.&.&.&.o.~ R Q Q Q Q Q Q ! ] #.#.#.#.#.#.#.#.+.{ o.&.&.&.&.&.",
"&.&.&.%.( E R Q Q Q Q Q Q Q W ] @.#.#.#.#.#.#.#.#.@.| } %.&.&.&.",
"&.&.&.) T ! ! Q Q Q Q Q Q Q U F H [ #.#.#.#.#.#.#.#.#.[ } &.&.&.",
"&.&.&.( R Q ! Q Q Q Q Q R I m u a S Y @.#.#.#.#.#.#.#.+.{ &.&.&.",
"&.&.&.( R Q Q Q Q Q ! T D n x x x s n H ' #.#.#.#.#.#.+.{ &.&.&.",
"&.&.&.( R Q Q Q Q E I m a d z z d d s s M Y +.#.#.#.#.+.{ &.&.&.",
"&.&.&.( R W Q ! L N n d k z k z l s l d e n S ^ #.#.#.+.{ &.&.&.",
"&.&.&.( R W R C 8 e x x x x x x x c c x c s q 8 P +.#.+.{ &.&.&.",
"&.&.&.( E L B f s k z k z z z x c l d l s l d s M S _ +.{ &.&.&.",
" .&.&./ V Z y s k k z z z x d k s s s l x l s s d q A G ( &.&.&.",
"&. .&.` 3 d x x x x x x s * % # = # 1 l x x x x x x k 3 ` &.&. .",
" .&.&.O.5 l z x z z k x y % h 0 r g = l z z z z z z z 6 O.&.&.&.",
"&.&.&.O.5 x z z z z z x i   > . # = # k z z z z z z x 6 O.&.&.&.",
"&.&.&.O.6 x x x x x x x p % h 9 r g % z x x x x x x x 6 O.&.&.&.",
"&.&.&.O.5 x k z z z z z s ; % O # % : k k k z z z z x 5 O.&.&.&.",
"&.&.&.O.5 x k z z z z z k s y u p e j z k k z z k z z 6 O.&.&.&.",
"&.&.&.O.6 x x x x x x x x c c x x x c x x x x x x x x 7 O.&.&.&.",
"&.&.&.O.5 x k k k d k x i * # $ - # : i x k j k d z z 5 O.&.&.&.",
"&.&.&.O.5 d ; % $ % 1 l ; 1 + O O O , ; k ; % $ % 1 x 5 O.&.&.&.",
"&.&.&.O.7 i % t = t % x ; j i j j ; 1 ; p # t = t % x 7 O.&.&.&.",
"&.&.&.O.6 i   =   = $ l ; p k c c ; < ; i o =   = # x 5 O.&.&.&.",
"&.&.&.O.6 u % t = t % z ; j i y p 4 r , i # t = t = l 5 O.&.&.&.",
"&.&.&.O.7 z * #   # * x ; p 2 ; 2 @ w , z * #   # * x 6 O.&.&.&.",
"&.&.&.O.5 x s y i y s k ; a x v v 2 < ; x s y y y s x 5 O.&.&.&.",
"&.&.&.O.5 x z x x l x x ; j k z z < 1 ; x l x l l x x 5 O.&.&.&.",
"&.&.&.$.b - - - - - - - X @ - - - & + X - - - - - - - b $.&.&.&."
};
