/* XPM */
static char *da88415ab59f4fcdfda7e985c14bd663mktFHPnOQJilHW9I[] = {
/* columns rows colors chars-per-pixel */
"32 32 131 2 ",
"   c None",
".  c #150F0C",
"X  c #16120D",
"o  c #161713",
"O  c #191614",
"+  c #171916",
"@  c #191916",
"#  c #1C1C1A",
"$  c #211E1C",
"%  c #1D221C",
"&  c #23221E",
"*  c #28221F",
"=  c #1F2420",
"-  c #262522",
";  c #2B2624",
":  c #242B24",
">  c #2D2926",
",  c #25272A",
"<  c #2B2B2A",
"1  c #312926",
"2  c #322E2A",
"3  c #2C322A",
"4  c #33342D",
"5  c #252B33",
"6  c #292E35",
"7  c #29323C",
"8  c #343532",
"9  c #373A37",
"0  c #3A3933",
"q  c #3A3C3A",
"w  c #3F403E",
"e  c #42403F",
"r  c #253344",
"t  c #293545",
"y  c #2C3844",
"u  c #27384D",
"i  c #28394D",
"p  c #303C49",
"a  c #2A3E56",
"s  c #2B3F58",
"d  c #2B415A",
"f  c #2D4562",
"g  c #2E4865",
"h  c #2F496A",
"j  c #304B6C",
"k  c #324E72",
"l  c #335176",
"z  c #34547B",
"x  c #375A7E",
"c  c #434343",
"v  c #484848",
"b  c #4F504F",
"n  c #505050",
"m  c #365A83",
"M  c #395D84",
"N  c #375D89",
"B  c #385E8A",
"V  c #37608C",
"C  c #3A628C",
"Z  c #3B6491",
"A  c #3A6492",
"S  c #3C6692",
"D  c #3D6793",
"F  c #3B6696",
"G  c #3C6594",
"H  c #3A6492",
"J  c #3A6896",
"K  c #3E6894",
"L  c #3E6A95",
"P  c #3D6896",
"I  c #3D6997",
"U  c #3F6997",
"Y  c #3E6996",
"T  c #3A6898",
"R  c #3B6898",
"E  c #3F6A98",
"W  c #3E6A99",
"Q  c #3E6B99",
"!  c #3F6C99",
"~  c #3C699C",
"^  c #3C6B9C",
"/  c #3C6B9D",
"(  c #3E6D9D",
")  c #3D6C9E",
"_  c #3E6C9E",
"`  c #3F6E9E",
"'  c #3D6A9A",
"]  c #3D6CA0",
"[  c #3F6EA0",
"{  c #3F70A2",
"}  c #3F71A3",
"|  c #406994",
" . c #406B95",
".. c #406996",
"X. c #406C98",
"o. c #416D9A",
"O. c #416F9F",
"+. c #416F9F",
"@. c #42709F",
"#. c #4270A0",
"$. c #4272A3",
"%. c #4373A3",
"&. c #4573A3",
"*. c #4072A4",
"=. c #4373A4",
"-. c #4274A7",
";. c #4272A3",
":. c #4376A9",
">. c #4275AB",
",. c #4376AC",
"<. c #4376AB",
"1. c #4478AA",
"2. c #4378AD",
"3. c #4579AE",
"4. c #457AAF",
"5. c #467AAE",
"6. c #4579AD",
"7. c #487BAD",
"8. c #4579B0",
"9. c #4679B0",
"0. c #457BB2",
"q. c #497EB3",
"w. c #4B82B6",
"e. c #4D85BA",
"r. c #4E89BF",
"t. c #5087BB",
"y. c #518ABC",
"u. c #4E8AC1",
"i. c #528FC6",
"p. c #5492C9",
"a. c #5896CC",
/* pixels */
"                            m z M l                             ",
"                        A R >.Q 8.[ F M                         ",
"                    l C 8.3.+.C S $.8.-.M l                     ",
"                l D >.D B M z k k m N C &.*.B                   ",
"              l ~ 3.D z h h s r u f j k M &.8.N                 ",
"              ( >.B k t 6 ; - ; ; - 5 5 s z U ,.C               ",
"            x +.N f 5 1 2 > ; ; - 1 1 2 > t l D A k             ",
"          V +.m h < 1 $ $ O X . . X O $ - 1 t z C (             ",
"          X.&.k 5 1 $ . . . . . . . . . X * ; u B 5.B           ",
"        m C X.s - $ . . . . . . . . . . . & ; 5 l 1.C ..        ",
"      M U B ..s > - # X . . . . . . . . o % 2 6 z @.C L         ",
"        m M M d > 8 3 o . . . . . . X X % : 4 6 j m M m         ",
"        l z k s - > 9 o . . . . . . . . % 3 4 5 j k z z         ",
"          l k a - # q # . . . . . . . o q q ; 5 g z z           ",
"          A B d ; 8 n ; o . . . . . . @ v c 4 6 k A L           ",
"          ( o.s > < n < O . . . . . . # q 8 2 6 k ~ o.          ",
"          R C a - 8 c < O . . . . . . - q 9 4 5 k ( B           ",
"          A V d ; c 8 - O . . . . . . # ; 9 0 6 k ~ C           ",
"          [ Z d > 8 8 @ . . . . . . . O - w 0 6 l / A           ",
"          ( C d ; 8 c $ . . . . . . . # q w 4 6 k R A           ",
"          C z d > : q ; X . . . . . . @ w < 4 6 h B B           ",
"        j z k d > & < < . . . . . . . # c < 4 7 k z l           ",
"        M &.$.m - % = - . . . . . . . $ < : 3 y #.$.#.          ",
"        L Z L l - % # + . . . . . . . @ % = 3 7 C H D           ",
"        $.5.0.C 3 - % + X X . . . . . X % % 4 p -.8.3.          ",
"        m C M g ; - % + . . . . . . . X % 3 4 7 z B B M         ",
"      r.Q Q Q l - - % o . . . . . . X X % 3 3 7 D R D $.i.      ",
"    L X.8.8.>.m $ % o X . . . . . . . X + = - r $.8.8.*.C ,.    ",
"  A z z A A M h r u r r r r r r 7 r r r r r r i z B A B j B     ",
"  z k j z z z z N ~ A m V / Q A J J A x m A B l l z l z j l     ",
"  $.m z 7.r.w.e.r.u.e.R } p.p.i.p.a.p.-.( e.r.w.5.1.>.L k L     ",
"  q.L B q.e.r.r.r.e.w./ } 8.q.r.e.y.y.7.$.5.e.y.y.t.w.1.m $.    "
};
