/* XPM */
static char *_10bb7aa53fd4112e8a38573eaf3620fwBM2HVK7WRnGk9q1[] = {
/* columns rows colors chars-per-pixel */
"32 32 6 1 ",
"  c None",
". c #3A4467",
"X c #5A6988",
"o c #8B9BB5",
"O c #EBD4AB",
"+ c #C0CCDC",
/* pixels */
"                                ",
"                                ",
"                                ",
"                                ",
"                                ",
"                                ",
"                                ",
"                                ",
"                                ",
"                                ",
"             ooo                ",
"            oooooo              ",
"          XXXXXXXXo        X    ",
"       XXXXXXXXXXXXX      XX    ",
"     XXXX+XX+++++++XXX   XXX    ",
"    XXXOXX+XXXXXXXXX++X XXX     ",
"   XXoO.Oo+ooooooooooooooXX     ",
"   ooooOoo+oXXXooooooooooo      ",
"    ooooo++oXXoooooooooooXX     ",
"     oooo+ooooooooooooo XXX     ",
"      +++o+o+o+o+o+o++   XXX    ",
"        ++++o+o+o+++       X    ",
"          +++++++               ",
"                                ",
"                                ",
"                                ",
"                                ",
"                                ",
"                                ",
"                                ",
"                                ",
"                                "
};
