/* XPM */
static char *result[] = {
/* columns rows colors chars-per-pixel */
"32 32 8 1 ",
"  c #3E3C69",
". c #5D638A",
"X c #8C97B7",
"o c #9AACB8",
"O c #EBD9A8",
"+ c #C0CADD",
"@ c #CDD6FE",
"# c white",
/* pixels */
"################################",
"######################o#########",
"#####################o#o########",
"######################o#########",
"################################",
"################################",
"#################@##############",
"#################@@#############",
"######@##########@@##@##########",
"######@###########@o@@##########",
"######@#@####XXX##o@@o##########",
"######@#@###XXXXXX#oo###########",
"########@#........X########.####",
"#######.............######..####",
"#####....+..+++++++...###...####",
"@###...O..+.........++.#...#####",
"#@#..XO OX+XXXXXXXXXXXXXX..####@",
"@##XXXXOXX+X...XXXXXXXXXXX######",
"####XXXXX++X..XXXXXXXXXXX..#####",
"#####XXXX+XXXXXXXXXXXXX#...#####",
"######+++X+X+X+X+X+X++###...####",
"########++++X+X+X+++#######.####",
"#########o+++++++###############",
"##########o#####################",
"#########################@######",
"#######################@#@######",
"#######################@#@######",
"#######################@########",
"################################",
"#############@##################",
"############@#@#################",
"#############@##################"
};
