/* XPM */
static char *result[] = {
/* columns rows colors chars-per-pixel */
"32 32 21 1 ",
"  c #323234",
". c #006800",
"X c #4F442D",
"o c #444444",
"O c #5E5943",
"+ c #545456",
"@ c #6F664A",
"# c #796E4E",
"$ c #6D6D6E",
"% c #6D6B73",
"& c #877F60",
"* c #00AD00",
"= c #9F926A",
"- c #AC9E70",
"; c #85838C",
": c #9AACB8",
"> c #A7A7A9",
", c #D5CFE1",
"< c #CDD6FE",
"1 c #E9E5EF",
"2 c white",
/* pixels */
"22222222222222222222222222222222",
"2222222222222222222222:222222222",
"222222222222         :2:22222222",
"22222222222 +$$$$$$$+ :222222222",
"2222222222 o$$$$$$$$$o 222222222",
"2222222222 o+$$$$$$$+o 222222222",
"2222222222o>+++++++++>o222222222",
"222222222 >>,,,,,,,,,>> 22222222",
"222222  o++>,,,,,,,,,>++o  22222",
"22222 o+$$+++++++++++++$$+o 2222",
"222222  o+$$$$$$$$$$$$$+o  22222",
"222222<2    ooooooooo    2222222",
"22222222X@# oo -#---X-#@X2222222",
"22222222X= o++o ---XX--=X2222222",
"2222222XX@ o++o 2--2.-#@XX222222",
"<2222222X=- oo 222-**--=X2222222",
"2<22222XXOo#--22X22--#@OXX22222<",
"<22222222 &1222;,;2221&X22222222",
"2222222222XX,,11111,,XX222222222",
"222222222 ooXXXXXXXXXoo 22222222",
"22222222  Xo++ooooo++oX  2222222",
"22222222 X@-o+$$$$$+o-@X 2222222",
"22222222X,=OX++$$$++XO=,X2222222",
"2222222 X,,XX2222222XX,,X 222222",
"2222222  XX X@22222@X XX%X222222",
"2222222     X=&,,,&=XXX%%X222222",
"2222222     X@@XXX@@X%%%X 222222",
"22222222 222X1=XXX=1XXXX 2222222",
"222222222222X,,X2X,,X22222222222",
"2222222222222XX222XX222222222222",
"222222222222<2<22222222222222222",
"2222222222222<222222222222222222"
};
