/* XPM */
static char *_7d947a075a64a679ae67d706ff75b15JfJIo3JTnpUb3hXn[] = {
/* columns rows colors chars-per-pixel */
"32 32 20 1 ",
"  c None",
". c #323234",
"X c #295E00",
"o c #4F422F",
"O c #444444",
"+ c #5F5744",
"@ c #545456",
"# c #6F634C",
"$ c #796B50",
"% c #6D6D6E",
"& c #6C6C73",
"* c #887C62",
"= c #439C00",
"- c #9F8E6D",
"; c #AD9A73",
": c #84848C",
"> c #A7A7A9",
", c #D3D2E0",
"< c #E8E7EF",
"1 c white",
/* pixels */
"                                ",
"                                ",
"            .........           ",
"           .@%%%%%%%@.          ",
"          .O%%%%%%%%%O.         ",
"          .O@%%%%%%%@O.         ",
"          O>@@@@@@@@@>O         ",
"         .>>,,,,,,,,,>>.        ",
"      ..O@@>,,,,,,,,,>@@O..     ",
"     .O@%%@@@@@@@@@@@@@%%@O.    ",
"      ..O@%%%%%%%%%%%%%@O..     ",
"        ....OOOOOOOOO....       ",
"        o#$.OO.;$;;;o;$#o       ",
"        o-.O@@O.;;;oo;;-o       ",
"       oo#.O@@O.1;;1X;$#oo      ",
"        o-;.OO.111;==;;-o       ",
"       oo+O$;;11o11;;$#+oo      ",
"         .*<111:,:111<*o        ",
"          oo,,<<<<<,,oo         ",
"         .OOoooooooooOO.        ",
"        ..oO@@OOOOO@@Oo..       ",
"        .o#;O@%%%%%@O;#o.       ",
"        o,-+o@@%%%@@o+-,o       ",
"       .o,,oo1111111oo,,o.      ",
"       ..oo.o#11111#o.oo&o      ",
"       .....o-*,,,*-ooo&&o      ",
"       .....o##ooo##o&&&o.      ",
"        .   o<-ooo-<oooo.       ",
"            o,,o o,,o           ",
"             oo   oo            ",
"                                ",
"                                "
};
