/* XPM */
static char *a24bc056402846c38435dfd7e7fe3d53PmiJAL7R95Pnr946[] = {
/* columns rows colors chars-per-pixel */
"32 32 133 2 ",
"   c #96BC20",
".  c #90B41F",
"X  c #97BD20",
"o  c #99C022",
"O  c #99BF24",
"+  c #A7D028",
"@  c #AAD429",
"#  c #B8E136",
"$  c #ACD62A",
"%  c #A5CE2A",
"&  c #9FC529",
"*  c #B3DD35",
"=  c #ACD52A",
"-  c #AAD329",
";  c #A4CC26",
":  c #9BC122",
">  c #91B51F",
",  c #96BC22",
"<  c #A0C825",
"1  c #A0C827",
"2  c #ABD529",
"3  c #B9E236",
"4  c #ABD429",
"5  c #B3DB34",
"6  c #9EC624",
"7  c #93B821",
"8  c #ABD52A",
"9  c #A9D228",
"0  c #9FC727",
"q  c #A1C828",
"w  c #A9D031",
"e  c #A3CC29",
"r  c #A7D128",
"t  c #8EB220",
"y  c #A5C92E",
"u  c #A0C52D",
"i  c #99C021",
"p  c #9FC724",
"a  c #A4CD2A",
"s  c #A9D329",
"d  c #9BC127",
"f  c #A2CB29",
"g  c #A1C928",
"h  c #9CC323",
"j  c #A6CF27",
"k  c #A0C727",
"l  c #B8E035",
"z  c #A9D229",
"x  c #9EC428",
"c  c #9BC125",
"v  c #9BC222",
"b  c #88AB1D",
"n  c #9CC423",
"m  c #A4CC29",
"M  c #A3CC26",
"N  c #9AC022",
"B  c #9DC423",
"V  c #9ABF26",
"C  c #A5CD27",
"Z  c #A8D228",
"A  c #9AC122",
"S  c #9AC124",
"D  c #A8D128",
"F  c #A1C925",
"G  c #B2DC35",
"H  c #98BE21",
"J  c #A7CB2F",
"K  c #ACD432",
"L  c #B7DF35",
"P  c #95BA22",
"I  c #9FC627",
"U  c #AAD231",
"Y  c #B4DB34",
"T  c #90B51F",
"R  c #98BF21",
"E  c #B0D934",
"W  c #B4DC34",
"Q  c #A4CD26",
"!  c #93B823",
"~  c #91B520",
"^  c #9CC325",
"/  c #A3CB29",
"(  c #9DC328",
")  c #A4CD29",
"_  c #97BD23",
"`  c #9EC429",
"'  c #99BF21",
"]  c #AFD632",
"[  c #B7E035",
"{  c #A5CE27",
"}  c #A5CA2E",
"|  c #A8CC2F",
" . c #B2D933",
".. c #AED733",
"X. c #B0D632",
"o. c #A4CA2F",
"O. c #92B722",
"+. c #A1CA28",
"@. c #97BE21",
"#. c #A2CA28",
"$. c #95BB22",
"%. c #A1C72E",
"&. c #9DC426",
"*. c #A0C824",
"=. c #9EC328",
"-. c #9DC523",
";. c #96BD20",
":. c #96BB22",
">. c #91B620",
",. c #94B921",
"<. c #9EC626",
"1. c #A2CA25",
"2. c #B2DB34",
"3. c #9EC524",
"4. c #88AC1D",
"5. c #96BB24",
"6. c #8BAE1E",
"7. c #A4CD27",
"8. c #A8CF30",
"9. c #92B620",
"0. c #A4C92E",
"q. c #A1CA25",
"w. c #B5DD34",
"e. c #B1DB34",
"r. c #B6DF35",
"t. c #AFD934",
"y. c #9BC225",
"u. c #9EC523",
"i. c #A5CD2A",
"p. c #A0C62D",
"a. c #98BE23",
"s. c #A3CB26",
"d. c white",
/* pixels */
"  . X o O + @ # $ $ % % $ $ % $ $ & $ % $ $ $ $ * = - ; : X   . ",
"    > , < 1 2 $ * $ 3 $ $ $ $ $ % $ $ % $ & $ $ % 3 4 5 6 . .   ",
". . 7 8 9 0 @ % $ $ $ & $ % $ 3 $ $ % $ $ % $ $ % $ 8 = q     . ",
".   X w 8 2 e = & $ % & $ % $ * $ % 3 % $ $ % $ 8 @ e r t   y   ",
"  y u i p 1 8 $ $ $ % $ $ $ $ $ % $ $ $ * 3 $ a s d f g : . u y ",
"  y h j - k - 3 3 $ $ $ 3 $ $ $ $ & $ % $ * $ l z x c v b     u ",
"    n m & @ m 4 * 3 $ 3 $ & % $ % & % $ $ $ * e e + M N .     . ",
"  b   B V g C f 8 * % 3 % & $ % $ $ % % $ $ $ 4 Z m @ A   . .   ",
".   . i S D F q % a % $ $ % % & $ % $ $ & % $ a @ G F H J X   . ",
"  . A 7 K L + C 4 a = $ $ $ % % $ $ $ % & $ $ $ 8 2 # f P X     ",
". b I ; p U Y 2 l 8 8 % $ % $ $ $ 3 $ $ $ % $ % $ $ + F h T .   ",
". b R D 8 4 E W @ 8 a $ $ $ % $ $ $ 3 $ $ $ $ % 4 0 Q f ! ~     ",
"  . . R ^ @ a = D / = $ * $ $ 3 % $ * $ 3 % % $ e ( ) s p X     ",
"  .   X _ Q / ` @ 8 $ $ $ 3 % * % $ $ % $ $ $ * 2 8 g p H y   . ",
"    y   ' ] 4 ` % $ $ % $ $ $ $ $ % $ % $ % $ $ G [ { B } u     ",
".     | 6  .$ $ $ * $ $ $ % $ % % $ $ $ % & $ 8 @ ..X.v u     . ",
"  . X P M s = % $ $ 3 $ $ $ % % $ $ & $ $ & $ e j c o.X .   b   ",
"  .     i O.+.4 $ $ * $ 3 $ $ & % $ $ $ $ % $ @ D 8 v @.@..     ",
"      y   j - #.@ $ $ % $ $ % & $ $ 3 $ $ $ $ 8 a @ < S h X   b ",
"  y u X R $.8 & - a $ $ % $ $ $ $ % * 3 $ $ 3 $ 8 m ` e < %.    ",
"y u   ' &.&.*.` @ ` % $ $ $ $ % $ % $ * % 3 % $ % $ =.C -.;.y   ",
"u     @.*.4 r #.8 $ $ % $ 3 $ $ $ $ % % $ $ $ % 8 m M :.>.  u   ",
"  . ' ,.B { L - 8 % $ $ $ * 3 $ $ 3 $ $ $ % $ 8 d <.9 h b     . ",
". X 1.j ^ + 2.8 3 $ % $ $ $ * % 3 % $ % $ $ $ @ D 8 $ 3.;..     ",
"  4.A 5./ - 8 % % $ $ & % $ $ $ $ $ $ $ $ 3 $ e 8 8 ] i     .   ",
"    . 6.7.4 % $ $ % $ $ $ % $ $ % & % $ $ $ * # s Y 8.B A 9.b   ",
"  .     h z $ $ % $ 3 $ $ $ $ $ % $ $ $ % % $ * @ E #./ + H   . ",
"    0.3.q.w.@ 3 $ % * 3 $ $ 3 $ $ $ $ % $ & $ $ 8 % a s v T     ",
"  y ,.{ D e.r.8 $ % $ * $ 3 % % $ 3 $ $ $ $ $ $ % $ ( < X y   . ",
"y u   : , 1.t.a % % $ $ % $ $ & $ $ * 3 $ $ 3 $ $ 8 d y.-.A }   ",
"u   . o u.; f = $ & $ $ $ $ % $ % $ $ * $ 3 $ $ & i.@ + ^ v p.  ",
"    R a.{ f a $ % $ $ 3 $ % % $ % $ % $ % $ % % $ $ a s s.,.>   "
};
