/* XPM */
static char *result[] = {
/* columns rows colors chars-per-pixel */
"32 32 3 1 ",
"  c #CBDBFC",
". c #5FCDE4",
"X c white",
/* pixels */
" .X      .XX      .             ",
"  .X      .XX      .            ",
"   .      ..XX      .           ",
"    .      ..XX      .          ",
"            ..XX      .         ",
"             ..X      ..        ",
"              ..X      ..       ",
"               ..X      ..      ",
"                ..X      ..     ",
"                 ..       ..    ",
"   X   X          ..       ..   ",
"   .XX .X          .        ..  ",
"    .XX .X                   .. ",
"     .XX .X                   ..",
"      .XX .X                   .",
".      .XX .X                   ",
"        .XX .X                  ",
"         .XX .X                 ",
"          .XX .X                ",
"           .XX .X               ",
"            .XX .X              ",
"             .XX .X             ",
"              .XX .X            ",
"               .XX .X           ",
"                .XX .X    X     ",
"                 ..X .X    X    ",
"                      .X   .X   ",
"                       .    .X  ",
"       X                .    .X ",
"        X                     .X",
"X       XX      .              .",
".X      .XX      .              "
};
