/* XPM */
static char *result[] = {
/* columns rows colors chars-per-pixel */
"32 32 23 1 ",
"  c #323234",
". c #006800",
"X c #4F442D",
"o c #444444",
"O c #5E5943",
"+ c #545456",
"@ c #6C6244",
"# c #6F664A",
"$ c #796E4E",
"% c #6D6D6E",
"& c #6D6B73",
"* c #877F60",
"= c #00AD00",
"- c #9F926A",
"; c #AC9E70",
": c #827F8B",
"> c #85838C",
", c #9AACB8",
"< c #A7A7A9",
"1 c #D5CFE1",
"2 c #CDD6FE",
"3 c #E9E5EF",
"4 c white",
/* pixels */
"44444444444444444444444444444444",
"4444444444444444444444,444444444",
"444444444444         ,4,44444444",
"44444444444 +%%%%%%%+ ,444444444",
"4444444444 o%%%%%%%%%o 444444444",
"4444444444 o+%%%%%%%+o 444444444",
"4444444444o<+++++++++<o444444444",
"444444444 <<111111111<< 44444444",
"444444  o++<111111111<++o  44444",
"44444 o+%%+++++++++++++%%+o 4444",
"444444  o+%%%%%%%%%%%%%+o  44444",
"44444424    ooooooooo    4444444",
"44444444 o $;;;X;;$$$$$OX4444444",
"44444444 o+ ;;XX;;;;;;;-X4444444",
"44444444 o+ ;;4.;;$$@X$#X4444444",
"24444444 o 44;==;;;;;;;-X4444444",
"42444444X13X44;;;$$$@X$OX4444442",
"244444444X>1>44444;;;;-X44444444",
"4444444444XX13333333   444444444",
"444444444444XXXXXXXo%+o 44444444",
"44444444444 ooo+++o%++%+ 4444444",
"4444444444, o+%%%++;$-X%o 444444",
"444444444,X oo+++3*X;43%+o 44444",
"4444444444X1X14443-X343X%+ 44444",
"44444444444XXX143-#OX3X %+o 4444",
"4444444444444X*1---*XX  %+o 4444",
"44444444444444X-##OX&&XX%+ X4444",
"4444444444444X33--XXX:::+ X44444",
"4444444444444X111X444XXX X444444",
"44444444444442XXX444444444444444",
"44444444444424244444444444444444",
"44444444444442444444444444444444"
};
