/* XPM */
static char *c1a1866a86e545f3b729e70c09bf3c30eALHiewQkD0KW4bq[] = {
/* columns rows colors chars-per-pixel */
"32 32 22 1 ",
"  c None",
". c #323234",
"X c #295E00",
"o c #4F422F",
"O c #444444",
"+ c #5F5744",
"@ c #545456",
"# c #6C5F46",
"$ c #6F634C",
"% c #796B50",
"& c #6D6D6E",
"* c #6C6C73",
"= c #887C62",
"- c #439C00",
"; c #9F8E6D",
": c #AD9A73",
"> c #81818A",
", c #84848C",
"< c #A7A7A9",
"1 c #D3D2E0",
"2 c #E8E7EF",
"3 c white",
/* pixels */
"                                ",
"                                ",
"            .........           ",
"           .@&&&&&&&@.          ",
"          .O&&&&&&&&&O.         ",
"          .O@&&&&&&&@O.         ",
"          O<@@@@@@@@@<O         ",
"         .<<111111111<<.        ",
"      ..O@@<111111111<@@O..     ",
"     .O@&&@@@@@@@@@@@@@&&@O.    ",
"      ..O@&&&&&&&&&&&&&@O..     ",
"        ....OOOOOOOOO....       ",
"        .O.%:::o::%%%%%+o       ",
"        .O@.::oo:::::::;o       ",
"        .O@.::3X::%%#o%$o       ",
"        .O.33:--:::::::;o       ",
"        o12o33:::%%%#o%+o       ",
"         o,1,33333::::;o        ",
"          oo12222222...         ",
"            oooooooO&@O.        ",
"           .OOO@@@O&@@&@.       ",
"           .O@&&&@@:%;o&O.      ",
"          o.OO@@@2=o:32&@O.     ",
"          o1o13332;o232o&@.     ",
"           ooo132;$+o2o.&@O.    ",
"             o=1;;;=oo..&@O.    ",
"              o;$$+o**oo&@.o    ",
"             o22;;ooo>>>@.o     ",
"             o111o   ooo.o      ",
"              ooo               ",
"                                ",
"                                "
};
