/* XPM */
static char *result[] = {
/* columns rows colors chars-per-pixel */
"32 32 20 1 ",
"  c #323234",
". c #4F442D",
"X c #444444",
"o c #5E5943",
"O c #545456",
"+ c #6C6244",
"@ c #6F664A",
"# c #796E4E",
"$ c #6D6D6E",
"% c #877F60",
"& c #00AD00",
"* c #9F926A",
"= c #AC9E70",
"- c #85838C",
"; c #9AACB8",
": c #A7A7A9",
"> c #D5CFE1",
", c #CDD6FE",
"< c #E9E5EF",
"1 c white",
/* pixels */
"11111111111111111111111111111111",
"1111111111111111111111;111111111",
"111111111111         ;1;11111111",
"11111111111 O$$$$$$$O ;111111111",
"1111111111 X$$$$$$$$$X 111111111",
"1111111111 XO$$$$$$$OX 111111111",
"1111111111X:OOOOOOOOO:X111111111",
"111111111 ::>>>>>>>>>:: 11111111",
"111111  XOO:>>>>>>>>>:OOX  11111",
"11111 XO$$OOOOOOOOOOOOO$$OX 1111",
"111111  XO$$$$$$$$$$$$$OX  11111",
"111111,1    XXXXXXXXX    1111111",
"11111111.o#####= XX =#=%.1111111",
"11111111.*===== XOOX ==..1111111",
"11111111.@#.+## XOOX 1=1.1111111",
",1111111 *====== XX 111&.1111111",
"1,111111.X#.+#XX===11.<>.111111,",
",11111111.XXXX=11111->-.11111111",
"1111111111.  <<<<<<<>..111111111",
"1111111111 XX .......11111111111",
"111111111 X$O$$$OOXXX 1111111111",
"11111111 XO$X==$$$$OX 1111111111",
"11111111 XO$.@#=.OOXX 1111111111",
"1111111 XXO$..*11.1>.11111111111",
"1111111 XO$$.%.<<.>.11111,111111",
"1111111 XO$O.o%..>%o.11,1,111111",
"11111111  $..%@**..%>.1,1,111111",
"1111111111 .>>*@.1.>>.1,11111111",
"111111111111.>>.111..11111111111",
"1111111111111..11111111111111111",
"111111111111,1,11111111111111111",
"1111111111111,111111111111111111"
};
