/* XPM */
static char *_17e61e38f134a7bf79150da18e19d4fxL5RftHu6LFkTBHs[] = {
/* columns rows colors chars-per-pixel */
"32 32 19 1 ",
"  c None",
". c #323234",
"X c #4F422F",
"o c #444444",
"O c #5F5744",
"+ c #545456",
"@ c #6C5F46",
"# c #6F634C",
"$ c #796B50",
"% c #6D6D6E",
"& c #887C62",
"* c #439C00",
"= c #9F8E6D",
"- c #AD9A73",
"; c #84848C",
": c #A7A7A9",
"> c #D3D2E0",
", c #E8E7EF",
"< c white",
/* pixels */
"                                ",
"                                ",
"            .........           ",
"           .+%%%%%%%+.          ",
"          .o%%%%%%%%%o.         ",
"          .o+%%%%%%%+o.         ",
"          o:+++++++++:o         ",
"         .::>>>>>>>>>::.        ",
"      ..o++:>>>>>>>>>:++o..     ",
"     .o+%%+++++++++++++%%+o.    ",
"      ..o+%%%%%%%%%%%%%+o..     ",
"        ....ooooooooo....       ",
"        XO$$$$$-.oo.-$-&X       ",
"        X=-----.o++o.--XX       ",
"        X#$X@$$.o++o.<-<X       ",
"        .=------.oo.<<<*X       ",
"        Xo$X@$oo---<<X,>X       ",
"         Xoooo-<<<<<;>;X        ",
"          X..,,,,,,,>XX         ",
"          .oo.XXXXXXX           ",
"         .o%+%%%++ooo.          ",
"        .o+%o--%%%%+o.          ",
"        .o+%X#$-X++oo.          ",
"       .oo+%XX=<<X<>X           ",
"       .o+%%X&X,,X>X            ",
"       .o+%+XO&XX>&OX           ",
"        ..%XX&#==XX&>X          ",
"          .X>>=#X X>>X          ",
"            X>>X   XX           ",
"             XX                 ",
"                                ",
"                                "
};
