/* XPM */
static char *f8299b2a4dd74b02b26bf9924f5423bfZ8mRN6JKWwTCygLM[] = {
/* columns rows colors chars-per-pixel */
"32 32 30 1 ",
"  c #161616",
". c #181818",
"X c gray13",
"o c gray16",
"O c #2D2D2D",
"+ c #373737",
"@ c gray22",
"# c gray23",
"$ c #434343",
"% c #494949",
"& c #515151",
"* c #555555",
"= c #5B5B5B",
"- c gray36",
"; c gray39",
": c #646464",
"> c #686868",
", c #6C6C6C",
"< c gray44",
"1 c #747474",
"2 c gray49",
"3 c #A73700",
"4 c #8B4900",
"5 c #A74706",
"6 c #A46100",
"7 c #00872B",
"8 c #00B64C",
"9 c #9AACB8",
"0 c #CDD6FE",
"q c white",
/* pixels */
"qqqqqqqqqqqqqqqqqqqqqqqqqqqqqqqq",
"qqqqqqqqqqqqqqqqqqqqqq9qqqqqqqqq",
"qqqqqqqqqqqqqqqqqqqqq9q9qqqqqqqq",
"qqqqqqqqqqqqqqqqqqqqqq9qqqqqqqqq",
"qqqqqqqqqqqqqqqqqqqqqqqqqqqqqqqq",
"qqqqqqqqqqqqqqqqqqqqqqqqqqqqqqqq",
"qqqqqqqqqqqqqqqqq0qqqqqqqqqqqqqq",
"qqqqqqqqqqqqqqqqq00qqqqqqqqqqqqq",
"qqqqqq0qqqqqqqqqq00qq0qqqqqqqqqq",
"qqqqqq0qqqqq********00qqqqqqqqqq",
"qqqqqq0q0q****222222**qqqqqqqqqq",
"qqqqqq0q0***22<<<<<<22*qqqqqqqqq",
"qqqqqqqq***2<<<<<<<<<<2*qqqqqqqq",
"qqqqqqqq**2<<<<<<<<<<<2*qqqqqqqq",
"qqqqqqq***1;:,<,:>>;:,<2*qqqqqqq",
"0qqqqqq***>.&O&:.--.&o-2*qqqqqqq",
"q0qqqqq***2X<%@<X<<X,%$2*qqqqqq0",
"0qqqqqq***2 $X,<X<< %@>2*qqqqqqq",
"qqqqqqq***2X<@&<X,<X<<<2*qqqqqqq",
"qqqqqqq***: ->X& *= -<<2*qqqqqqq",
"qqqqqqq***2,<<<<<<<<<<<2*qqqqqqq",
"qqqqqqq***2<<<<<<<<<<<<2*qqqqqqq",
"qqqqqqq***2<<<<<<<<<<<<2*qqqqqqq",
"qqqqqqq***2<<<<<<<<<<<<2*qqqqqqq",
"qqqqqqq***2<<<<<<<<<<<<2*0qqqqqq",
"qqqqqqq***2<<<<<<<<<<<<2*0qqqqqq",
"qqqqqqq***2<<<<<<<<<<<<2*0qqqqqq",
"qqqqqqq***2<<<<<<<<<<<<2*qqqqqqq",
"qqqqqqq***2<<<<<<<<<<8<2*qqqqqqq",
"qqqqqqq***28<55<<<<<3755*qqqqqqq",
"qqqqqq55**375635<<35536353qqqqqq",
"qqqqq3353643353343363534333qqqqq"
};
