/* XPM */
static char *_ca1947e628240d489446bc8e271b41613YqZOC4C9JTRPKa[] = {
/* columns rows colors chars-per-pixel */
"32 32 167 2 ",
"   c #96BC20",
".  c #90B41F",
"X  c #96BA21",
"o  c #93B026",
"O  c #97AA2E",
"+  c #88902E",
"@  c #A79C50",
"#  c #9A844B",
"$  c #A89357",
"%  c #7D6C39",
"&  c #8E7A42",
"*  c #9C9443",
"=  c #929932",
"-  c #9EAA38",
";  c #9BB030",
":  c #97BA23",
">  c #96BB21",
",  c #97AB2D",
"<  c #90AC24",
"1  c #94A92A",
"2  c #889729",
"3  c #807536",
"4  c #7E6F38",
"5  c #A69752",
"6  c #998A46",
"7  c #908240",
"8  c #8F853D",
"9  c #A6B93A",
"0  c #96B922",
"q  c #8F8C37",
"w  c #91B321",
"e  c #94A031",
"r  c #8F992F",
"t  c #A39D49",
"y  c #998E43",
"u  c #8E7B41",
"i  c #A79554",
"p  c #A89456",
"a  c #998B45",
"s  c #98A035",
"d  c #919733",
"f  c #89922D",
"g  c #99B628",
"h  c #90B31F",
"j  c #93B423",
"k  c #99983C",
"l  c #A89556",
"z  c #A59A4D",
"x  c #A5984F",
"c  c #A69851",
"v  c #988747",
"b  c #A79653",
"n  c #A69651",
"m  c #999042",
"M  c #807D31",
"N  c #91AD25",
"B  c #9FB333",
"V  c #96BB20",
"C  c #97B227",
"Z  c #9BA737",
"A  c #93A431",
"S  c #998F43",
"D  c #A79455",
"F  c #8E7D41",
"G  c #8E7C41",
"H  c #8E7B42",
"J  c #989040",
"K  c #95B225",
"L  c #A19D46",
"P  c #A4AE40",
"I  c #A5C72F",
"U  c #98A532",
"Y  c #9FA33E",
"T  c #7D6E39",
"R  c #817735",
"E  c #7F7336",
"W  c #7D6D39",
"Q  c #9A854B",
"!  c #998748",
"~  c #8E7D40",
"^  c #978B43",
"/  c #A79555",
"(  c #A2A046",
")  c #A2B739",
"_  c #989C38",
"`  c #817935",
"'  c #8F803F",
"]  c #979040",
"[  c #988945",
"{  c #A89356",
"}  c #9A864A",
"|  c #8E7E40",
" . c #9A854A",
".. c #807636",
"X. c #7D6E38",
"o. c #7E7038",
"O. c #A89654",
"+. c #A89455",
"@. c #9A8848",
"#. c #9A8649",
"$. c #A79456",
"%. c #7D6D38",
"&. c #A79654",
"*. c #7E7037",
"=. c #7E7138",
"-. c #A89555",
";. c #998847",
":. c #8F813E",
">. c #A6994F",
",. c #998F42",
"<. c #7E6F39",
"1. c #7E6D39",
"2. c #9A874A",
"3. c #8E7C42",
"4. c #8F833D",
"5. c #8C8D34",
"6. c #A1A243",
"7. c #848432",
"8. c #838131",
"9. c #8F7F3F",
"0. c #7F7137",
"q. c #9A8749",
"w. c #A89655",
"e. c #8E863B",
"r. c #9A8947",
"t. c #92AA28",
"y. c #888F2E",
"u. c #9DA13E",
"i. c #807238",
"p. c #9B874A",
"a. c #99943F",
"s. c #8D9F29",
"d. c #8E823D",
"f. c #918F37",
"g. c #94AA29",
"h. c #A5C531",
"j. c #988F41",
"k. c #99953E",
"l. c #91873E",
"z. c #908E38",
"x. c #A6BF36",
"c. c #9A8A46",
"v. c #90B320",
"b. c #A5C82E",
"n. c #A1C130",
"m. c #A2A243",
"M. c #949F32",
"N. c #7E7236",
"B. c #97B924",
"V. c #A5C332",
"C. c #A0C52D",
"Z. c #9FA73C",
"A. c #99A734",
"S. c #A59A4E",
"D. c #9A844A",
"F. c #8E833D",
"G. c #99963D",
"H. c #988D42",
"J. c #95B623",
"K. c #9CAE33",
"L. c #96973A",
"P. c #998B44",
"I. c #7F7437",
"U. c #7E6E38",
"Y. c #A29B49",
"T. c #96B724",
"R. c white",
/* pixels */
"  .   X o O + @ # $ # # # % % # & & $ $ $ # % % * = - ; : >   . ",
"  , < < 1 2 3 $ $ $ $ $ # # & & % % # $ # % 4 5 6 7 8 9 0 q w   ",
". e r t : e y u $ $ $ # % % # # # # % % & $ $ i p a s d a f g . ",
"h j k l i z x c v & % % % # $ $ $ # # & & # p i b i n m M N B V ",
"C Z A S p D F G H # # % # $ $ $ # # # # # % $ $ $ $ a J K L P I ",
"U Y 8 T R E W Q # # # & # $ $ $ $ $ $ # # % # $ p D ! ~ ^ / ( ) ",
"( _ ` u # # % $ # $ # # % # $ $ $ # # # & # & & W & ' W % 4 4 ] ",
"' [ 4 ~ { # & $ $ $ $ # # & # % & % & & $ # # & & $ } |  . .! ..",
" .G X. .$ $ & $ $ $ $ $ # & % # # # # % $ $ # % $ $ p o.O.+.@.#.",
"# & & & % % # # $ $ # % % # & $ $ # # % % % % & # $ # H $.p  .# ",
"# & # # # % & & # % % # # # & # $ $ # $ % # $ # % % % # $ $ # $ ",
"# & $ # # # & % % # $ $ # $ # % % & & # % $ # $ # # % & & $ $ # ",
"& # $ $ $ # % # # % # $ $ # & # # # & & % $ $ # # & & # # % & & ",
"# % % & & % % $ $ # & & % & # $ # # # # & $ $ # & & # $ # & # # ",
"% # # # # & % % & & # # % % $ $ $ $ # # & $ $ $ % $ $ # # & # # ",
"$ $ # $ & & # $ # $ # # # % % $ $ # # # % # $ # & $ $ $ # # & & ",
"$ $ $ # % $ $ $ $ # $ # & & & # $ $ $ # % & & % % # $ $ $ # & # ",
"& % % & % # $ $ $ $ # & % # & & # % % & & # # # % % & & % % & % ",
"# # $ # # & & % # & & # $ # # & % % $ # $ # # # # # & % # # # & ",
"# $ # $ # # # % % # $ $ # # $ # # & # $ $ $ $ $ # # & % # # & & ",
"$ $ $ # # # # # % $ $ $ $ $ # # # & % & & $ $ # # # & & $ % & # ",
"$ $ $ $ # $ $ # & & % & $ $ $ # # % # # # & & & % # H  .W % # $ ",
"$ $ # # $ & & $ & # # # & & $ $ # % $ $ $ $ # # & %. . . .u & $ ",
"$ { { # & & # % # $ $ # # & # # % # $ $ $ # # #  .u b # &. .o.W ",
"4 *.=.X. ./  .% $ $ $ $ # # % % & & $ $ $ $ $ # % u -.5 /  .;.:.",
">.,.#.& T { D & # $ $ $ $ % # # # & & $ $ # <.1.{ 2.3.4.z x 5.6.",
"7.8.9.8 0.u G u H % % # $ & $ $ # # # & # & q.w. .l ! e.r.y 1 t.",
"y., u.@.9.i. .p.# # % % & # $ $ $ $ # % % # & p { $ # a.s.d.f.X ",
"g.h.j.$ k.l.l p  . .# & # % # $ $ # % % # # # & & p $ q.z.x.c.v.",
"b.n.m.k.M.F l D $  .& # # # % & & & # $ $ +.} # u a N.E f.B.V.  ",
"C.Z.A.> S.5 G # =.W & & # # & # # & $ $ $ Q #. .D.F.s G.H.J.C.  ",
"      v.K.L.P.I.#.# # # % % # # # & $ $ $ $ {  .U.@.Y.- T.. .   "
};
