/* XPM */
static char *result[] = {
/* columns rows colors chars-per-pixel */
"32 32 88 1 ",
"  c #4C463C",
". c #5A4B33",
"X c #524B3C",
"o c #5C5035",
"O c #654D39",
"+ c #665439",
"@ c #67593D",
"# c #5C5A57",
"$ c #635945",
"% c #6C5E43",
"& c #736347",
"* c #72614C",
"= c #7B6C4F",
"- c #63625F",
"; c #7A6655",
": c #766A52",
"> c #7C6D52",
", c #666562",
"< c #766A62",
"1 c #727273",
"2 c #7E7576",
"3 c #7C7B7B",
"4 c #867464",
"5 c #837865",
"6 c #8B7E65",
"7 c #817172",
"8 c #887D70",
"9 c #837C7C",
"0 c #878074",
"q c #8D8475",
"w c #99897C",
"e c #877F88",
"r c #858383",
"t c #8B8484",
"y c #8A8887",
"u c #8A8A8A",
"i c #938B8C",
"p c #9A9087",
"a c #9F968D",
"s c #959292",
"d c #9B9394",
"f c #96919F",
"g c #9F9798",
"h c #9C999A",
"j c #A29C9C",
"k c #AA9B9C",
"l c #ADA296",
"z c #AC9FA0",
"x c #9AACB8",
"c c #A4A2A3",
"v c #ABA4A4",
"b c #AEA9A9",
"n c #B1A6A7",
"m c #B2A7A8",
"M c #B2ADAD",
"N c #B8AFB0",
"B c #B3B1B1",
"V c #BBB4B5",
"C c #BDBABA",
"Z c #C0B4B5",
"A c #C1B7B8",
"S c #C4BDBD",
"D c #C8BEBE",
"F c #C5C2BB",
"G c #A9ACC3",
"H c #B0B2CC",
"J c #C8BFC0",
"K c #C6C2C2",
"L c #C9C4C4",
"P c #CEC7C9",
"I c #CECCCC",
"U c #D1C7C8",
"Y c #D2CDCD",
"T c #D6D2D2",
"R c #DAD4D4",
"E c #DBD7D8",
"W c #DDDAD9",
"Q c #E2DCDC",
"! c #C5CCF1",
"~ c #CDD6FE",
"^ c #E5E2E2",
"/ c #EAE5E5",
"( c #EDE8E7",
") c #EDEBEB",
"_ c #F1EEEE",
"` c #F4F3F3",
"' c #F8F7F7",
"] c #FFFFFF",
/* pixels */
"]]]]]]]]]]]]]]]/S]]]]]]]]]]]]]]]",
"]]]]]]]]]]]]]]]Dd)]]]]x]]]]]]]]]",
"]]]]]]]]]]]]]]]DvD]]]x]x]]]]]]]]",
"]]]]]]]]]]]]]])ZJS]]]]x]]]]]]]]]",
"]]]]]]]]]]]]](NTQz`]]]]]]]]]]]]]",
"]]]]]]]]]]]]TnT'`AA`]]]]]]]]]]]]",
"]]]]]]]]]]]_m^']]'RV)]]]]]]]]]]]",
"]]]]]]]]]]]AA']']]_nk]]]]]]]]]]]",
"]]]]]]~]]]YeU(`']'(zsH]]]]]]]]]]",
"]]]]]]~]])pikkR`_`miSsdQ]]]]]]]]",
"]]]]]]~]!bbCdiZAnNjKQvi)]]]]]]]]",
"]]]]]]~`fb/(TSjjjnU/_QMY]]]]]]]]",
"]]]]]]]WeS''__///))__QBd`]]]]]]]",
"]]]]]]]LsT'`_''_'``_Kdth)]]]]]]]",
"]]]]]]E29M(QY''E(/DYStLPc`]]]]]]",
"~]]]]]brtVUKQ`^MY/iyKjEI3E]]]]]]",
"]~]]]]Er9dskQ_C2VTsguyQBd`]]]]]~",
"~]]]]]TbSvt9BLi9sdVQPbEQB_]]]]]]",
"]]]]])sPWTTj9tjb9vQ`''KLbK]]]]]]",
"]]]]])9s3V'^FSQ^RQ^/`'hruV]]]]]]",
"]]]]]`BKsC]]'`_]_'/bE'BVC)]]]]]]",
"]]]]]]]`hY)^`_)'W')3h^VV]]]]]]]]",
"]]]]]]]`bJhK/BK^gI(s,KbT]]]]]]]]",
"]]]]]]]]Dy1YI3BF-rIM3ss_]]]]]]]]",
"]]]]]]]]_Cccy#cy Xru^II]]~]]]]]]",
"]]]]]]]]]])u<X-Xo. 3)]]~]~]]]]]]",
"]]]]]]]]]]])p.$%@@$W]]]~]~]]]]]]",
"]]]]]]]]]]'L0:>>&@%F]]]~]]]]]]]]",
"]]]]]]]]]]`q5a==>@.&)]]]]]]]]]]]",
"]]]]]]]]]])8;6:w*&+O(]]]]]]]]]]]",
"]]]]]]]]]]])74G]Ql0l]]]]]]]]]]]]",
"]]]]]]]]]]]]`!]]]](R]]]]]]]]]]]]"
};
